<?xml version="1.0" standalone="no"?>
<!DOCTYPE svg PUBLIC "-//W3C//DTD SVG 20010904//EN"
 "http://www.w3.org/TR/2001/REC-SVG-20010904/DTD/svg10.dtd">
<svg version="1.0" xmlns="http://www.w3.org/2000/svg"
 width="871.000000pt" height="359.000000pt" viewBox="0 0 871.000000 359.000000"
 preserveAspectRatio="xMidYMid meet">

<g transform="translate(0.000000,359.000000) scale(0.100000,-0.100000)"
fill="#000000" stroke="none">
<path d="M5935 3199 c-418 -51 -1002 -57 -1643 -17 -160 9 -195 9 -202 -2 -16
-25 2 -38 73 -56 73 -17 169 -50 357 -121 152 -58 284 -100 369 -118 41 -9 77
-17 79 -19 2 -2 -24 -89 -58 -193 -34 -103 -67 -204 -73 -223 -6 -19 -12 -37
-14 -39 -1 -2 -21 13 -45 32 -100 82 -233 126 -403 134 -102 5 -133 2 -205
-16 -241 -61 -440 -228 -555 -466 -70 -145 -88 -224 -87 -395 0 -151 1 -147
-81 -242 -44 -51 -191 -177 -218 -186 -5 -2 -9 244 -9 632 l0 636 -95 0 -95 0
0 -686 0 -685 -52 -23 c-49 -21 -156 -55 -220 -70 -26 -6 -28 -4 -28 24 l0 30
-367 2 -368 3 -3 703 -2 703 -93 -3 -92 -3 0 -790 0 -790 75 -5 c41 -3 249 -3
463 -1 l387 3 0 29 c0 25 5 29 43 39 23 5 85 23 138 40 52 16 100 30 107 30 8
0 12 -22 12 -70 l0 -70 95 0 95 0 0 123 1 122 80 55 c44 30 118 94 165 143 47
48 86 87 89 87 2 0 9 -17 15 -37 39 -121 143 -279 238 -361 163 -141 309 -197
512 -196 108 0 136 4 205 27 95 32 163 70 227 126 25 22 49 41 52 41 3 0 6
-114 6 -253 0 -212 -2 -256 -16 -275 -19 -27 -51 -28 -78 -3 -21 19 -21 19
-84 -24 -90 -60 -88 -57 -51 -99 70 -80 185 -104 275 -58 53 27 110 91 124
139 7 26 10 214 8 608 l-3 570 -85 0 -85 0 -6 -130 c-7 -147 -17 -182 -86
-287 -51 -77 -135 -145 -221 -179 -87 -34 -247 -38 -344 -9 -195 58 -366 231
-429 433 -32 102 -36 237 -10 354 67 295 281 500 558 533 174 21 380 -40 415
-124 14 -35 13 -73 -3 -92 -13 -16 -55 -19 -64 -4 -3 6 -10 10 -14 10 -14 0
-111 -133 -104 -143 13 -21 99 -50 148 -49 145 1 236 115 221 276 -6 71 -5 77
77 326 l84 255 155 11 c85 7 188 17 229 23 206 33 491 107 686 177 67 24 125
44 129 44 14 0 -5 -294 -32 -475 -28 -193 -39 -455 -21 -517 5 -18 4 -28 -3
-28 -6 0 -51 32 -100 70 -288 225 -863 609 -893 597 -8 -3 -53 -67 -101 -144
-49 -76 -112 -174 -142 -218 -52 -77 -65 -117 -43 -130 18 -12 50 2 168 70 62
36 120 65 129 65 8 0 37 -16 63 -35 53 -38 74 -43 83 -20 7 18 47 20 64 3 9
-9 12 -179 12 -705 l0 -693 95 0 95 0 2 368 3 367 388 3 387 2 0 -370 0 -370
95 0 95 0 0 795 0 795 -95 0 -95 0 0 -335 0 -335 -390 0 -390 0 0 250 c0 196
-3 258 -14 285 -8 19 -12 35 -8 35 18 -1 378 -262 537 -390 107 -87 123 -96
140 -79 12 12 11 24 -7 84 -18 59 -21 97 -22 245 -1 147 4 203 28 355 23 142
29 214 30 342 1 209 1 209 -110 160 -160 -70 -342 -122 -585 -167 -407 -76
-597 -79 -810 -14 -46 14 -108 32 -138 40 -46 13 -220 80 -229 89 -2 1 212 0
475 -2 489 -6 712 2 1003 33 154 17 183 25 178 52 -4 20 -43 24 -143 11z
m-625 -574 c49 -31 92 -60 95 -65 4 -6 -12 -10 -37 -10 -49 0 -145 -46 -317
-152 l-33 -21 12 24 c8 13 37 60 65 104 29 44 60 96 70 115 22 43 35 60 46 60
5 0 50 -25 99 -55z"/>
<path d="M6972 2514 c-69 -34 -111 -95 -119 -169 l-6 -55 92 0 c88 0 91 1 91
23 0 44 14 47 202 47 l178 0 0 -705 0 -705 95 0 95 0 0 705 0 705 268 2 267 3
3 88 3 87 -559 0 -558 0 -52 -26z"/>
</g>
</svg>
