<svg width="18" height="18" viewBox="0 0 18 18" fill="none" xmlns="http://www.w3.org/2000/svg">
<path fill-rule="evenodd" clip-rule="evenodd" d="M8.87868 0.87868C9.44129 0.31607 10.2044 0 11 0C11.7956 0 12.5587 0.31607 13.1213 0.87868C13.6839 1.44129 14 2.20435 14 3C14 3.79565 13.6839 4.55871 13.1213 5.12132C12.5587 5.68393 11.7956 6 11 6C10.2044 6 9.44129 5.68393 8.87868 5.12132C8.31607 4.55871 8 3.79565 8 3C8 2.20435 8.31607 1.44129 8.87868 0.87868ZM11 2C10.7348 2 10.4804 2.10536 10.2929 2.29289C10.1054 2.48043 10 2.73478 10 3C10 3.26522 10.1054 3.51957 10.2929 3.70711C10.4804 3.89464 10.7348 4 11 4C11.2652 4 11.5196 3.89464 11.7071 3.70711C11.8946 3.51957 12 3.26522 12 3C12 2.73478 11.8946 2.48043 11.7071 2.29289C11.5196 2.10536 11.2652 2 11 2Z" fill="#847464"/>
<path fill-rule="evenodd" clip-rule="evenodd" d="M0 3C0 2.44772 0.447715 2 1 2H9C9.55229 2 10 2.44772 10 3C10 3.55228 9.55229 4 9 4H1C0.447715 4 0 3.55228 0 3Z" fill="#847464"/>
<path fill-rule="evenodd" clip-rule="evenodd" d="M12 3C12 2.44772 12.4477 2 13 2H17C17.5523 2 18 2.44772 18 3C18 3.55228 17.5523 4 17 4H13C12.4477 4 12 3.55228 12 3Z" fill="#847464"/>
<path fill-rule="evenodd" clip-rule="evenodd" d="M2.87868 6.87868C3.44129 6.31607 4.20435 6 5 6C5.79565 6 6.55871 6.31607 7.12132 6.87868C7.68393 7.44129 8 8.20435 8 9C8 9.79565 7.68393 10.5587 7.12132 11.1213C6.55871 11.6839 5.79565 12 5 12C4.20435 12 3.44129 11.6839 2.87868 11.1213C2.31607 10.5587 2 9.79565 2 9C2 8.20435 2.31607 7.44129 2.87868 6.87868ZM5 8C4.73478 8 4.48043 8.10536 4.29289 8.29289C4.10536 8.48043 4 8.73478 4 9C4 9.26522 4.10536 9.51957 4.29289 9.70711C4.48043 9.89464 4.73478 10 5 10C5.26522 10 5.51957 9.89464 5.70711 9.70711C5.89464 9.51957 6 9.26522 6 9C6 8.73478 5.89464 8.48043 5.70711 8.29289C5.51957 8.10536 5.26522 8 5 8Z" fill="#847464"/>
<path fill-rule="evenodd" clip-rule="evenodd" d="M0 9C0 8.44771 0.447715 8 1 8H3C3.55228 8 4 8.44771 4 9C4 9.55229 3.55228 10 3 10H1C0.447715 10 0 9.55229 0 9Z" fill="#847464"/>
<path fill-rule="evenodd" clip-rule="evenodd" d="M6 9C6 8.44771 6.44772 8 7 8H17C17.5523 8 18 8.44771 18 9C18 9.55229 17.5523 10 17 10H7C6.44772 10 6 9.55229 6 9Z" fill="#847464"/>
<path fill-rule="evenodd" clip-rule="evenodd" d="M11.8787 12.8787C12.4413 12.3161 13.2043 12 14 12C14.7957 12 15.5587 12.3161 16.1213 12.8787C16.6839 13.4413 17 14.2043 17 15C17 15.7957 16.6839 16.5587 16.1213 17.1213C15.5587 17.6839 14.7957 18 14 18C13.2043 18 12.4413 17.6839 11.8787 17.1213C11.3161 16.5587 11 15.7957 11 15C11 14.2043 11.3161 13.4413 11.8787 12.8787ZM14 14C13.7348 14 13.4804 14.1054 13.2929 14.2929C13.1054 14.4804 13 14.7348 13 15C13 15.2652 13.1054 15.5196 13.2929 15.7071C13.4804 15.8946 13.7348 16 14 16C14.2652 16 14.5196 15.8946 14.7071 15.7071C14.8946 15.5196 15 15.2652 15 15C15 14.7348 14.8946 14.4804 14.7071 14.2929C14.5196 14.1054 14.2652 14 14 14Z" fill="#847464"/>
<path fill-rule="evenodd" clip-rule="evenodd" d="M0 15C0 14.4477 0.447715 14 1 14H12C12.5523 14 13 14.4477 13 15C13 15.5523 12.5523 16 12 16H1C0.447715 16 0 15.5523 0 15Z" fill="#847464"/>
<path fill-rule="evenodd" clip-rule="evenodd" d="M15 15C15 14.4477 15.4477 14 16 14H17C17.5523 14 18 14.4477 18 15C18 15.5523 17.5523 16 17 16H16C15.4477 16 15 15.5523 15 15Z" fill="#847464"/>
</svg>
