<svg width="16" height="28" viewBox="0 0 16 28" fill="none" xmlns="http://www.w3.org/2000/svg">
<path fill-rule="evenodd" clip-rule="evenodd" d="M1.5621 6.22875C2.56229 5.22856 3.91885 4.66666 5.33333 4.66666H10.6667C10.6858 4.66666 10.705 4.66707 10.7242 4.6679C11.7877 4.71382 12.8132 5.07698 13.6687 5.71063C14.5241 6.34428 15.1703 7.21943 15.5242 8.22345C15.769 8.91796 15.4044 9.6794 14.7099 9.92417C14.0154 10.1689 13.2539 9.80437 13.0092 9.10986C12.8322 8.60785 12.5091 8.17027 12.0814 7.85345C11.6606 7.54175 11.1575 7.36096 10.635 7.33332H5.33333C4.62609 7.33332 3.94781 7.61427 3.44772 8.11437C2.94762 8.61447 2.66667 9.29275 2.66667 9.99999C2.66667 10.7072 2.94762 11.3855 3.44772 11.8856C3.94781 12.3857 4.62609 12.6667 5.33333 12.6667H10.6667C12.0812 12.6667 13.4377 13.2286 14.4379 14.2288C15.4381 15.2289 16 16.5855 16 18C16 19.4145 15.4381 20.771 14.4379 21.7712C13.4377 22.7714 12.0812 23.3333 10.6667 23.3333H5.33333C5.31415 23.3333 5.29498 23.3329 5.27582 23.3321C4.21225 23.2862 3.18677 22.923 2.33134 22.2894C1.47591 21.6557 0.829677 20.7805 0.475817 19.7765C0.231042 19.082 0.595623 18.3206 1.29013 18.0758C1.98464 17.831 2.74608 18.1956 2.99085 18.8901C3.16778 19.3921 3.4909 19.8297 3.91861 20.1465C4.3394 20.4582 4.84247 20.639 5.36501 20.6667H10.6667C11.3739 20.6667 12.0522 20.3857 12.5523 19.8856C13.0524 19.3855 13.3333 18.7072 13.3333 18C13.3333 17.2927 13.0524 16.6145 12.5523 16.1144C12.0522 15.6143 11.3739 15.3333 10.6667 15.3333H5.33333C3.91885 15.3333 2.56229 14.7714 1.5621 13.7712C0.561903 12.771 0 11.4145 0 9.99999C0 8.5855 0.561903 7.22895 1.5621 6.22875Z" fill="url(#paint0_linear_26_20)"/>
<path fill-rule="evenodd" clip-rule="evenodd" d="M8 0.666656C8.73638 0.666656 9.33333 1.26361 9.33333 1.99999V5.99999C9.33333 6.73637 8.73638 7.33332 8 7.33332C7.26362 7.33332 6.66667 6.73637 6.66667 5.99999V1.99999C6.66667 1.26361 7.26362 0.666656 8 0.666656ZM8 20.6667C8.73638 20.6667 9.33333 21.2636 9.33333 22V26C9.33333 26.7364 8.73638 27.3333 8 27.3333C7.26362 27.3333 6.66667 26.7364 6.66667 26V22C6.66667 21.2636 7.26362 20.6667 8 20.6667Z" fill="url(#paint1_linear_26_20)"/>
<defs>
<linearGradient id="paint0_linear_26_20" x1="6.2291" y1="6.71317" x2="18.4152" y2="8.25592" gradientUnits="userSpaceOnUse">
<stop stop-color="#FA7D7A"/>
<stop offset="1" stop-color="#E7B303"/>
</linearGradient>
<linearGradient id="paint1_linear_26_20" x1="6.2291" y1="6.71317" x2="18.4152" y2="8.25592" gradientUnits="userSpaceOnUse">
<stop stop-color="#FA7D7A"/>
<stop offset="1" stop-color="#E7B303"/>
</linearGradient>
</defs>
</svg>
