<svg width="18" height="20" viewBox="0 0 18 20" fill="none" xmlns="http://www.w3.org/2000/svg">
<path d="M5 12C4.44772 12 4 12.4477 4 13V15C4 15.5523 4.44772 16 5 16H7C7.55228 16 8 15.5523 8 15V13C8 12.4477 7.55228 12 7 12H5Z" fill="#847464"/>
<path fill-rule="evenodd" clip-rule="evenodd" d="M13 0C13.5523 0 14 0.447715 14 1V2H15C15.7956 2 16.5587 2.31607 17.1213 2.87868C17.6839 3.44129 18 4.20435 18 5V17C18 17.7957 17.6839 18.5587 17.1213 19.1213C16.5587 19.6839 15.7957 20 15 20H3C2.20435 20 1.44129 19.6839 0.87868 19.1213C0.31607 18.5587 0 17.7957 0 17V5C0 4.20435 0.31607 3.44129 0.87868 2.87868C1.44129 2.31607 2.20435 2 3 2H4V1C4 0.447715 4.44772 0 5 0C5.55228 0 6 0.447715 6 1V2H12V1C12 0.447715 12.4477 0 13 0ZM16 5V8H2V5C2 4.73478 2.10536 4.48043 2.29289 4.29289C2.48043 4.10536 2.73478 4 3 4H4V5C4 5.55228 4.44772 6 5 6C5.55228 6 6 5.55228 6 5V4H12V5C12 5.55228 12.4477 6 13 6C13.5523 6 14 5.55228 14 5V4H15C15.2652 4 15.5196 4.10536 15.7071 4.29289C15.8946 4.48043 16 4.73478 16 5ZM16 10H2V17C2 17.2652 2.10536 17.5196 2.29289 17.7071C2.48043 17.8946 2.73478 18 3 18H15C15.2652 18 15.5196 17.8946 15.7071 17.7071C15.8946 17.5196 16 17.2652 16 17V10Z" fill="#847464"/>
</svg>
