<svg width="16" height="16" viewBox="0 0 16 16" fill="none" xmlns="http://www.w3.org/2000/svg">
<path d="M5.33333 9.33333C4.96514 9.33333 4.66667 9.6318 4.66667 9.99999V11.3333C4.66667 11.7015 4.96514 12 5.33333 12H6.66667C7.03486 12 7.33333 11.7015 7.33333 11.3333V9.99999C7.33333 9.6318 7.03486 9.33333 6.66667 9.33333H5.33333Z" fill="#BAAEA2"/>
<path fill-rule="evenodd" clip-rule="evenodd" d="M10.6667 1.33333C11.0349 1.33333 11.3333 1.63181 11.3333 1.99999V2.66666H12C12.5304 2.66666 13.0391 2.87738 13.4142 3.25245C13.7893 3.62752 14 4.13623 14 4.66666V12.6667C14 13.1971 13.7893 13.7058 13.4142 14.0809C13.0391 14.4559 12.5304 14.6667 12 14.6667H4C3.46957 14.6667 2.96086 14.4559 2.58579 14.0809C2.21071 13.7058 2 13.1971 2 12.6667V4.66666C2 4.13623 2.21071 3.62752 2.58579 3.25245C2.96086 2.87738 3.46957 2.66666 4 2.66666H4.66667V1.99999C4.66667 1.63181 4.96514 1.33333 5.33333 1.33333C5.70152 1.33333 6 1.63181 6 1.99999V2.66666H10V1.99999C10 1.63181 10.2985 1.33333 10.6667 1.33333ZM12.6667 4.66666V6.66666H3.33333V4.66666C3.33333 4.48985 3.40357 4.32028 3.5286 4.19526C3.65362 4.07023 3.82319 3.99999 4 3.99999H4.66667V4.66666C4.66667 5.03485 4.96514 5.33333 5.33333 5.33333C5.70152 5.33333 6 5.03485 6 4.66666V3.99999H10V4.66666C10 5.03485 10.2985 5.33333 10.6667 5.33333C11.0349 5.33333 11.3333 5.03485 11.3333 4.66666V3.99999H12C12.1768 3.99999 12.3464 4.07023 12.4714 4.19526C12.5964 4.32028 12.6667 4.48985 12.6667 4.66666ZM12.6667 7.99999H3.33333V12.6667C3.33333 12.8435 3.40357 13.013 3.5286 13.1381C3.65362 13.2631 3.82319 13.3333 4 13.3333H12C12.1768 13.3333 12.3464 13.2631 12.4714 13.1381C12.5964 13.013 12.6667 12.8435 12.6667 12.6667V7.99999Z" fill="#BAAEA2"/>
</svg>
