<svg width="16" height="16" viewBox="0 0 16 16" fill="none" xmlns="http://www.w3.org/2000/svg">
<path fill-rule="evenodd" clip-rule="evenodd" d="M11.0894 4.91074C11.4148 5.23618 11.4148 5.76381 11.0894 6.08925L6.08937 11.0893C5.76394 11.4147 5.2363 11.4147 4.91086 11.0893C4.58543 10.7638 4.58543 10.2362 4.91086 9.91074L9.91086 4.91074C10.2363 4.5853 10.7639 4.5853 11.0894 4.91074Z" fill="white"/>
<path fill-rule="evenodd" clip-rule="evenodd" d="M8.16225 3.12239L7.79742 3.54474C7.49656 3.89303 6.97033 3.93148 6.62204 3.63063C6.27375 3.32977 6.2353 2.80354 6.53615 2.45525L6.92199 2.00858C6.93525 1.99323 6.94906 1.97837 6.9634 1.96403C7.9012 1.02637 9.17307 0.499647 10.4992 0.499741C11.8254 0.499834 13.0972 1.02674 14.0348 1.96453C14.9725 2.90233 15.4992 4.1742 15.4991 5.50035C15.499 6.8265 14.9721 8.0983 14.0343 9.03596C14.0206 9.0497 14.0064 9.06296 13.9917 9.0757L13.5467 9.46237C13.1993 9.76424 12.6729 9.72732 12.3711 9.37991C12.0692 9.0325 12.1061 8.50616 12.4535 8.20429L12.8753 7.83781C13.4884 7.21462 13.8324 6.37517 13.8325 5.50023C13.8325 4.61611 13.4814 3.76817 12.8562 3.14296C12.2311 2.51775 11.3832 2.16647 10.4991 2.16641C9.62457 2.16635 8.78544 2.50993 8.16225 3.12239Z" fill="white"/>
<path fill-rule="evenodd" clip-rule="evenodd" d="M3.6246 6.61488C3.92934 6.95977 3.89679 7.4864 3.5519 7.79114L3.13374 8.16063C2.82977 8.46522 2.58806 8.82622 2.42221 9.22345C2.25352 9.62746 2.16667 10.0609 2.16667 10.4987C2.16667 10.9366 2.25352 11.37 2.42221 11.774C2.59089 12.1781 2.83805 12.5446 3.14938 12.8524C3.784 13.48 4.64053 13.832 5.53304 13.832C6.40557 13.832 7.24369 13.4956 7.87372 12.8942L8.16469 12.5028C8.43928 12.1335 8.96129 12.0566 9.33064 12.3312C9.69999 12.6058 9.77681 13.1278 9.50222 13.4972L9.17138 13.9422C9.14623 13.976 9.11854 14.0079 9.08857 14.0375C8.14194 14.9736 6.86434 15.4986 5.53304 15.4986C4.20174 15.4986 2.92415 14.9736 1.97753 14.0376C1.50944 13.5747 1.13783 13.0236 0.884213 12.4162C0.630592 11.8087 0.5 11.157 0.5 10.4987C0.5 9.84048 0.630592 9.18875 0.884213 8.5813C1.13783 7.97386 1.50945 7.42276 1.97753 6.95993C1.98861 6.94897 1.99999 6.93833 2.01167 6.92801L2.44833 6.54218C2.79323 6.23744 3.31986 6.26999 3.6246 6.61488Z" fill="white"/>
</svg>
