<svg width="30" height="30" viewBox="0 0 30 30" fill="none" xmlns="http://www.w3.org/2000/svg">
<path d="M16.3334 1.66668C16.3334 0.930297 15.7364 0.333344 15 0.333344C14.2637 0.333344 13.6667 0.930297 13.6667 1.66668V4.33334C13.6667 5.06972 14.2637 5.66668 15 5.66668C15.7364 5.66668 16.3334 5.06972 16.3334 4.33334V1.66668Z" fill="url(#paint0_linear_4_314)"/>
<path d="M6.51479 4.62922C5.99409 4.10852 5.14987 4.10852 4.62917 4.62922C4.10847 5.14992 4.10847 5.99414 4.62917 6.51484L6.51451 8.40018C7.0352 8.92087 7.87942 8.92087 8.40012 8.40018C8.92082 7.87947 8.92082 7.03526 8.40012 6.51456L6.51479 4.62922Z" fill="url(#paint1_linear_4_314)"/>
<path fill-rule="evenodd" clip-rule="evenodd" d="M15.0075 8.26808C15.8927 8.26039 16.7706 8.42907 17.5899 8.76428C18.4092 9.09948 19.1536 9.5945 19.7795 10.2205C20.4055 10.8464 20.9005 11.5908 21.2357 12.4101C21.5709 13.2294 21.7396 14.1072 21.7319 14.9924C21.7242 15.8776 21.5403 16.7524 21.1909 17.5658C20.8415 18.3791 20.3336 19.1148 19.6969 19.7298C18.4395 20.9441 16.7555 21.6161 15.0075 21.6009C13.2596 21.5857 11.5875 20.8846 10.3514 19.6485C9.11537 18.4125 8.41425 16.7404 8.39906 14.9924C8.38387 13.2445 9.05583 11.5604 10.2702 10.3031C10.8852 9.66635 11.6208 9.15847 12.4342 8.80908C13.2475 8.45969 14.1223 8.27578 15.0075 8.26808ZM16.5801 11.2324C16.0885 11.0312 15.5618 10.93 15.0307 10.9347C14.4996 10.9393 13.9747 11.0496 13.4867 11.2592C12.9987 11.4689 12.5573 11.7736 12.1883 12.1557C11.4597 12.9101 11.0565 13.9205 11.0656 14.9693C11.0747 16.018 11.4954 17.0213 12.237 17.7629C12.9787 18.5046 13.9819 18.9252 15.0307 18.9343C16.0795 18.9435 17.0899 18.5403 17.8443 17.8117C18.2264 17.4427 18.5311 17.0013 18.7407 16.5133C18.9504 16.0253 19.0607 15.5004 19.0653 14.9693C19.0699 14.4381 18.9687 13.9114 18.7676 13.4198C18.5665 12.9283 18.2695 12.4816 17.8939 12.1061C17.5183 11.7305 17.0717 11.4335 16.5801 11.2324Z" fill="url(#paint2_linear_4_314)"/>
<path d="M8.40012 21.5998C8.92082 22.1205 8.92082 22.9648 8.40012 23.4855L6.51479 25.3708C5.99409 25.8915 5.14987 25.8915 4.62917 25.3708C4.10847 24.8501 4.10847 24.0059 4.62917 23.4852L6.51451 21.5998C7.0352 21.0791 7.87942 21.0791 8.40012 21.5998Z" fill="url(#paint3_linear_4_314)"/>
<path d="M25.3708 4.62922C25.8915 5.14992 25.8915 5.99414 25.3708 6.51484L23.4855 8.40017C22.9648 8.92087 22.1206 8.92087 21.5999 8.40018C21.0792 7.87948 21.0792 7.03526 21.5999 6.51456L23.4852 4.62922C24.0059 4.10852 24.8501 4.10852 25.3708 4.62922Z" fill="url(#paint4_linear_4_314)"/>
<path d="M23.4855 21.5998C22.9648 21.0791 22.1206 21.0791 21.5999 21.5998C21.0792 22.1205 21.0792 22.9648 21.5999 23.4855L23.4852 25.3708C24.0059 25.8915 24.8501 25.8915 25.3708 25.3708C25.8915 24.8501 25.8915 24.0059 25.3708 23.4852L23.4855 21.5998Z" fill="url(#paint5_linear_4_314)"/>
<path d="M0.333374 15C0.333374 14.2636 0.930328 13.6667 1.66671 13.6667H4.33337C5.06975 13.6667 5.66671 14.2636 5.66671 15C5.66671 15.7364 5.06975 16.3333 4.33337 16.3333H1.66671C0.930328 16.3333 0.333374 15.7364 0.333374 15Z" fill="url(#paint6_linear_4_314)"/>
<path d="M24.3334 15C24.3334 14.2636 24.9303 13.6667 25.6667 13.6667H28.3334C29.0698 13.6667 29.6667 14.2636 29.6667 15C29.6667 15.7364 29.0698 16.3333 28.3334 16.3333H25.6667C24.9303 16.3333 24.3334 15.7364 24.3334 15Z" fill="url(#paint7_linear_4_314)"/>
<path d="M16.3334 25.6667C16.3334 24.9303 15.7364 24.3333 15 24.3333C14.2637 24.3333 13.6667 24.9303 13.6667 25.6667V28.3333C13.6667 29.0697 14.2637 29.6667 15 29.6667C15.7364 29.6667 16.3334 29.0697 16.3334 28.3333V25.6667Z" fill="url(#paint8_linear_4_314)"/>
<defs>
<linearGradient id="paint0_linear_4_314" x1="11.7534" y1="6.98451" x2="33.4851" y2="11.5699" gradientUnits="userSpaceOnUse">
<stop stop-color="#FA7D7A"/>
<stop offset="1" stop-color="#E7B303"/>
</linearGradient>
<linearGradient id="paint1_linear_4_314" x1="11.7534" y1="6.98451" x2="33.4851" y2="11.5699" gradientUnits="userSpaceOnUse">
<stop stop-color="#FA7D7A"/>
<stop offset="1" stop-color="#E7B303"/>
</linearGradient>
<linearGradient id="paint2_linear_4_314" x1="11.7534" y1="6.98451" x2="33.4851" y2="11.5699" gradientUnits="userSpaceOnUse">
<stop stop-color="#FA7D7A"/>
<stop offset="1" stop-color="#E7B303"/>
</linearGradient>
<linearGradient id="paint3_linear_4_314" x1="11.7534" y1="6.98451" x2="33.4851" y2="11.5699" gradientUnits="userSpaceOnUse">
<stop stop-color="#FA7D7A"/>
<stop offset="1" stop-color="#E7B303"/>
</linearGradient>
<linearGradient id="paint4_linear_4_314" x1="11.7534" y1="6.98451" x2="33.4851" y2="11.5699" gradientUnits="userSpaceOnUse">
<stop stop-color="#FA7D7A"/>
<stop offset="1" stop-color="#E7B303"/>
</linearGradient>
<linearGradient id="paint5_linear_4_314" x1="11.7534" y1="6.98451" x2="33.4851" y2="11.5699" gradientUnits="userSpaceOnUse">
<stop stop-color="#FA7D7A"/>
<stop offset="1" stop-color="#E7B303"/>
</linearGradient>
<linearGradient id="paint6_linear_4_314" x1="11.7534" y1="6.98451" x2="33.4851" y2="11.5699" gradientUnits="userSpaceOnUse">
<stop stop-color="#FA7D7A"/>
<stop offset="1" stop-color="#E7B303"/>
</linearGradient>
<linearGradient id="paint7_linear_4_314" x1="11.7534" y1="6.98451" x2="33.4851" y2="11.5699" gradientUnits="userSpaceOnUse">
<stop stop-color="#FA7D7A"/>
<stop offset="1" stop-color="#E7B303"/>
</linearGradient>
<linearGradient id="paint8_linear_4_314" x1="11.7534" y1="6.98451" x2="33.4851" y2="11.5699" gradientUnits="userSpaceOnUse">
<stop stop-color="#FA7D7A"/>
<stop offset="1" stop-color="#E7B303"/>
</linearGradient>
</defs>
</svg>
