<svg xmlns="http://www.w3.org/2000/svg" width="26" height="28" viewBox="0 0 26 28" fill="none">
<path fill-rule="evenodd" clip-rule="evenodd" d="M12 0.666656C12.7364 0.666656 13.3333 1.26361 13.3333 1.99999V3.33332H21.3333C21.687 3.33332 22.0261 3.4738 22.2761 3.72385L24.9428 6.39051C25.4635 6.91121 25.4635 7.75543 24.9428 8.27613L22.2761 10.9428C22.0261 11.1928 21.687 11.3333 21.3333 11.3333H13.3333V14H14.6667C15.403 14 16 14.5969 16 15.3333V20.6667C16 21.403 15.403 22 14.6667 22H13.3333V24.6667H14.6667C15.403 24.6667 16 25.2636 16 26C16 26.7364 15.403 27.3333 14.6667 27.3333H9.33333C8.59695 27.3333 8 26.7364 8 26C8 25.2636 8.59695 24.6667 9.33333 24.6667H10.6667V22H4C3.64638 22 3.30724 21.8595 3.05719 21.6095L0.390524 18.9428C-0.130175 18.4221 -0.130175 17.5779 0.390524 17.0572L3.05719 14.3905C3.30724 14.1405 3.64638 14 4 14H10.6667V11.3333H6.66667C5.93029 11.3333 5.33333 10.7364 5.33333 9.99999V4.66666C5.33333 3.93028 5.93029 3.33332 6.66667 3.33332H10.6667V1.99999C10.6667 1.26361 11.2636 0.666656 12 0.666656ZM13.3333 19.3333V16.6667H4.55228L3.21895 18L4.55228 19.3333H13.3333ZM20.781 8.66666H8V5.99999H20.781L22.1144 7.33332L20.781 8.66666Z" fill="url(#paint0_linear_4_275)"/>
<defs fill="#000000">
<linearGradient id="paint0_linear_4_275" x1="9.86274" y1="6.71317" x2="28.7094" y2="10.491" gradientUnits="userSpaceOnUse" fill="#000000">
<stop stop-color="#2196f3" fill="#000000"/>
<stop offset="1" stop-color="#09010a" fill="#000000"/>
</linearGradient>
</defs>
</svg>