<svg width="16" height="16" viewBox="0 0 16 16" fill="none" xmlns="http://www.w3.org/2000/svg">
<path fill-rule="evenodd" clip-rule="evenodd" d="M4.78105 4.11438C5.28115 3.61428 5.95942 3.33333 6.66667 3.33333H9.33333C9.34292 3.33333 9.35251 3.33353 9.36209 3.33395C9.89387 3.35691 10.4066 3.53849 10.8343 3.85531C11.262 4.17214 11.5852 4.60972 11.7621 5.11173C11.8845 5.45898 11.7022 5.8397 11.3549 5.96209C11.0077 6.08447 10.627 5.90218 10.5046 5.55493C10.4161 5.30392 10.2546 5.08514 10.0407 4.92672C9.8303 4.77088 9.57876 4.68048 9.31749 4.66666H6.66667C6.31304 4.66666 5.97391 4.80714 5.72386 5.05719C5.47381 5.30723 5.33333 5.64637 5.33333 5.99999C5.33333 6.35362 5.47381 6.69276 5.72386 6.9428C5.97391 7.19285 6.31304 7.33333 6.66667 7.33333H9.33333C10.0406 7.33333 10.7189 7.61428 11.219 8.11438C11.719 8.61447 12 9.29275 12 9.99999C12 10.7072 11.719 11.3855 11.219 11.8856C10.7189 12.3857 10.0406 12.6667 9.33333 12.6667H6.66667C6.65708 12.6667 6.64749 12.6665 6.63791 12.666C6.10613 12.6431 5.59338 12.4615 5.16567 12.1447C4.73795 11.8278 4.41484 11.3903 4.23791 10.8883C4.11552 10.541 4.29781 10.1603 4.64507 10.0379C4.99232 9.91551 5.37304 10.0978 5.49543 10.4451C5.58389 10.6961 5.74545 10.9149 5.95931 11.0733C6.1697 11.2291 6.42124 11.3195 6.68251 11.3333H9.33333C9.68696 11.3333 10.0261 11.1929 10.2761 10.9428C10.5262 10.6928 10.6667 10.3536 10.6667 9.99999C10.6667 9.64637 10.5262 9.30723 10.2761 9.05719C10.0261 8.80714 9.68696 8.66666 9.33333 8.66666H6.66667C5.95942 8.66666 5.28115 8.38571 4.78105 7.88561C4.28095 7.38552 4 6.70724 4 5.99999C4 5.29275 4.28095 4.61447 4.78105 4.11438Z" fill="#BAAEA2"/>
<path fill-rule="evenodd" clip-rule="evenodd" d="M8 1.33333C8.36819 1.33333 8.66667 1.63181 8.66667 1.99999V3.99999C8.66667 4.36818 8.36819 4.66666 8 4.66666C7.63181 4.66666 7.33333 4.36818 7.33333 3.99999V1.99999C7.33333 1.63181 7.63181 1.33333 8 1.33333ZM8 11.3333C8.36819 11.3333 8.66667 11.6318 8.66667 12V14C8.66667 14.3682 8.36819 14.6667 8 14.6667C7.63181 14.6667 7.33333 14.3682 7.33333 14V12C7.33333 11.6318 7.63181 11.3333 8 11.3333Z" fill="#BAAEA2"/>
</svg>
