<svg xmlns="http://www.w3.org/2000/svg" width="1280" height="150" viewBox="0 0 1280 150" fill="none">
<g clip-path="url(#clip0_119_2757)">
<g filter="url(#filter0_d_119_2757)">
<path d="M-101.392 49.791C-107.049 54.0676 -112.125 57.6555 -116.862 62.7208L-125.433 80.6705C-125.433 89.1938 -127.137 99.163 -126.707 107.553C-126.041 120.575 -128.711 133.035 -126.395 146.277C-123.431 163.219 -119.088 180.112 -117.175 197.217C-115.796 209.542 -119.274 217.012 -126.707 227.625C-127.963 229.418 -138.229 240.121 -132.021 240.489C-123.474 240.997 -114.792 244.851 -106.392 246.597C-98.5842 248.22 -90.9553 250.457 -83.1082 251.925C-61.8214 255.908 -38.4533 259.971 -16.5375 260.371C-5.32646 260.576 5.64101 262.512 16.7478 263.62C37.5779 265.699 58.6757 265.71 79.5681 267.129C102.243 268.668 125.273 266.864 148.014 267.648C181.768 268.813 217.388 272.431 250.527 277.979C317.088 289.124 382.268 309.121 450.708 311.831C491.732 313.455 532.503 317.861 573.535 319.303C606.604 320.465 639.612 320.616 672.61 323.071C702.248 325.276 731.74 327.858 761.449 329.374C836.622 333.209 912.583 331.713 987.883 331.713C1053.94 331.713 1119.67 330.707 1185.33 323.851C1213.47 320.912 1239.05 312.189 1266.67 307.997C1298.76 303.127 1331.99 302.949 1364.49 302.474C1405.66 301.874 1445.73 297.181 1486.38 292.079C1496.46 290.813 1505.01 289.735 1510.21 281.618C1516.35 272.049 1513.18 256.626 1513.18 245.947V195.268C1513.18 181.173 1510.47 166.806 1508.26 152.84C1506.37 140.915 1507.76 128.798 1504.12 117.104C1498.36 98.6181 1493.7 80.4019 1490.37 61.5512C1489.22 55.0904 1489.09 56.9107 1484.74 58.3025C1477.43 60.6402 1470.12 63.3276 1462.55 65.0598C1443.12 69.5082 1424.8 65.7113 1405.98 59.8619C1373.22 49.6786 1349.24 29.4852 1319.88 14.5101C1302.1 5.4413 1277.31 2.39718 1256.74 0.995577C1239.23 -0.197893 1219.7 -0.4594 1202.21 0.995577C1187.13 2.24953 1174.67 9.98518 1162.89 17.2967L1162.36 17.6289C1143.65 29.2412 1126.74 40.8243 1106.26 50.5057C1083.1 61.4504 1057.55 68.7551 1032.03 74.8059C997.268 83.0468 961.745 91.7394 925.297 91.959L924.488 91.964C906.444 92.0745 889.688 92.1771 873.885 84.2921C861.251 77.9887 847.947 71.5976 836.693 63.6304C822.929 53.8865 807.314 47.5938 791.844 39.9799C774.33 31.3606 755.244 23.4989 735.586 18.8634C713.683 13.6982 692.146 14.8729 669.797 16.4594C649.831 17.8767 635.106 22.3627 617.213 29.3892C597.174 37.2579 582.534 49.3658 565.175 60.3167C545.963 72.4365 522.68 78.1935 500.479 85.3317C479.64 92.0325 458.093 100.667 436.018 104.109C421.935 106.305 408.711 103.663 395.232 100.86C370.058 95.6271 361.233 76.4062 342.257 63.3705C326.171 52.3207 301.647 46.8098 282.015 42.8388C243.844 35.1178 203.16 29.4189 163.875 27.7648C117.156 25.7977 70.3045 26.4653 23.5455 26.4653C-4.16162 26.4653 -34.7039 27.6924 -61.465 34.1972L-61.7672 34.2707C-76.6474 37.8874 -89.9096 41.1108 -101.392 49.791Z" fill="#2196f3"/>
</g>
<g filter="url(#filter1_d_119_2757)">
<path d="M-666.309 51.2933C-671.287 54.4105 -675.753 57.0258 -679.921 60.718L-687.462 73.8018C-687.462 80.0146 -688.961 87.2813 -688.584 93.3967C-687.997 102.889 -690.347 111.971 -688.309 121.624C-685.701 133.973 -681.88 146.287 -680.196 158.754C-678.983 167.738 -682.043 173.183 -688.584 180.919C-689.689 182.226 -698.721 190.028 -693.258 190.296C-685.739 190.666 -678.099 193.475 -670.709 194.748C-663.839 195.931 -657.127 197.562 -650.223 198.632C-631.493 201.535 -610.933 204.497 -591.65 204.789C-581.786 204.938 -154.316 206.349 -144.544 207.157C-126.216 208.672 -107.654 208.68 -89.2713 209.714C-69.3206 210.836 -49.0575 209.521 -29.0489 210.093C0.649902 210.942 31.9902 213.579 61.147 217.623C119.711 225.747 177.059 240.323 237.277 242.298C273.373 243.482 309.245 246.694 345.348 247.745C374.443 248.592 403.486 248.702 432.519 250.492C458.597 252.099 484.545 253.981 510.685 255.085C576.826 257.881 643.662 256.79 709.915 256.79C768.037 256.79 825.87 256.058 883.639 251.06C908.397 248.918 930.902 242.559 955.205 239.504C983.443 235.954 1012.68 235.824 1041.28 235.478C1077.5 235.04 1259.2 298.219 1294.97 294.5C1303.84 293.578 1311.36 292.791 1315.94 286.875C1321.34 279.9 1318.55 268.658 1318.55 260.874V223.933C1318.55 213.659 1316.16 203.187 1314.22 193.006C1312.56 184.314 1313.78 175.482 1310.57 166.958C1305.5 153.483 1301.41 140.205 1298.47 126.465C1297.47 121.755 1297.35 123.082 1293.52 124.097C1287.09 125.801 1280.66 127.76 1274 129.022C1256.91 132.265 1096.14 66.2576 1078 59C1045.5 46 1027.86 36.4921 1002.02 25.5765C986.377 18.9661 965.593 14.0215 947.5 12.9999L947.463 12.9978C932.07 12.1286 916.997 11.2774 898.5 15C884.011 18.7743 873.927 22.4503 863.428 27.8498C846.968 36.3142 832.092 44.7573 814.067 51.8142C793.69 59.792 771.214 65.1165 748.757 69.527L745.983 70.0724C716.283 75.9113 685.948 81.875 654.849 82.0302L654.136 82.0338C638.26 82.1143 623.518 82.1891 609.613 76.4417C598.497 71.847 586.791 67.1884 576.889 61.381C564.779 54.2786 551.04 49.6917 537.428 44.1418C522.019 37.8591 505.225 32.1286 487.93 28.7497C468.658 24.9847 449.708 25.8409 430.045 26.9973C412.478 28.0304 399.521 31.3003 383.778 36.4221C366.147 42.1577 347.774 51.0177 332.5 59C315.596 67.8343 300.602 71.9963 281.069 77.1994C262.733 82.0837 243.775 88.3778 224.352 90.8866L223.981 90.9346C211.811 92.5071 204.329 93.4738 187.5 90.8866C163 84.5 152.196 70.5019 135.5 61C121.347 52.9456 87.2734 43.3946 70 40.5C36.415 34.8721 19.4716 36.4437 -15.0933 35.2381C-56.1997 33.8042 -97.4218 34.2908 -138.563 34.2908C-162.941 34.2908 -607.634 35.1852 -631.18 39.9267L-631.446 39.9803C-644.538 42.6166 -656.207 44.9662 -666.309 51.2933Z" fill="url(#paint0_linear_119_2757)"/>
</g>
<g filter="url(#filter2_d_119_2757)">
<path d="M-531.309 91.0446C-536.287 94.1619 -540.753 96.7772 -544.921 100.469L-552.462 113.553C-552.462 119.766 -553.961 127.033 -553.584 133.148C-552.997 142.64 -555.347 151.722 -553.309 161.375C-550.701 173.724 -546.88 186.038 -545.196 198.506C-543.983 207.489 -547.043 212.934 -553.584 220.67C-554.689 221.978 -563.721 229.779 -558.258 230.048C-550.739 230.418 -543.099 233.227 -535.709 234.5C-528.839 235.683 -522.127 237.313 -515.223 238.383C-496.493 241.286 -475.933 244.248 -456.65 244.54C-446.786 244.689 -19.3163 246.1 -9.54388 246.908C8.78351 248.423 27.3464 248.432 45.7287 249.465C65.6794 250.587 85.9425 249.272 105.951 249.844C135.65 250.693 166.99 253.33 196.147 257.375C254.711 265.498 312.059 280.074 372.277 282.049C408.373 283.234 444.245 286.445 480.348 287.496C509.443 288.343 538.486 288.453 567.519 290.243C593.597 291.85 619.545 293.732 645.685 294.837C711.826 297.632 778.662 296.542 844.915 296.542C903.037 296.542 960.87 295.809 1018.64 290.811C1043.4 288.669 1065.9 282.31 1090.21 279.255C1118.44 275.705 1147.68 275.575 1176.28 275.23C1212.5 274.792 1394.2 337.971 1429.97 334.251C1438.84 333.329 1446.36 332.543 1450.94 326.626C1456.34 319.651 1453.55 308.41 1453.55 300.625V263.684C1453.55 253.411 1451.16 242.938 1449.22 232.758C1447.56 224.065 1448.78 215.233 1445.57 206.709C1440.5 193.235 1436.41 179.957 1433.47 166.216C1432.47 161.507 1432.35 162.834 1428.52 163.848C1422.09 165.552 1415.66 167.511 1409 168.774C1391.91 172.016 1231.14 106.009 1213 98.7513C1180.5 85.7513 1162.86 76.2435 1137.02 65.3279C1121.38 58.7174 1100.59 53.7729 1082.5 52.7512L1082.46 52.7491C1067.07 51.8799 1052 51.0287 1033.5 54.7513C1019.01 58.5257 1008.93 62.2016 998.428 67.6012C981.968 76.0656 967.092 84.5087 949.067 91.5656C928.69 99.5434 906.214 104.868 883.757 109.278L880.983 109.824C851.283 115.663 820.948 121.626 789.849 121.782L789.136 121.785C773.26 121.866 758.518 121.94 744.613 116.193C733.497 111.598 721.791 106.94 711.889 101.132C699.779 94.0299 686.04 89.4431 672.428 83.8932C657.019 77.6105 640.225 71.8799 622.93 68.501C603.658 64.736 584.708 65.5923 565.045 66.7487C547.478 67.7818 534.521 71.0517 518.778 76.1734C501.147 81.9091 482.774 90.769 467.5 98.7513C450.596 107.586 435.602 111.748 416.069 116.951C397.733 121.835 378.775 128.129 359.352 130.638L358.981 130.686C346.811 132.258 339.329 133.225 322.5 130.638C298 124.251 287.196 110.253 270.5 100.751C256.347 92.697 222.273 83.1459 205 80.2513C171.415 74.6234 154.472 76.1951 119.907 74.9894C78.8003 73.5555 37.5782 74.0422 -3.56287 74.0422C-27.9412 74.0422 -472.634 74.9366 -496.18 79.6781L-496.446 79.7316C-509.538 82.3679 -521.207 84.7175 -531.309 91.0446Z" fill="url(#paint1_linear_119_2757)"/>
</g>
</g>
<defs fill="#000000">
<filter id="filter0_d_119_2757" x="-150" y="-20" width="1680" height="364" filterUnits="userSpaceOnUse" color-interpolation-filters="sRGB" fill="#000000">
<feFlood flood-opacity="0" result="BackgroundImageFix" fill="#000000"/>
<feColorMatrix in="SourceAlpha" type="matrix" values="0 0 0 0 0 0 0 0 0 0 0 0 0 0 0 0 0 0 127 0" result="hardAlpha" fill="#000000"/>
<feOffset dy="-4" fill="#000000"/>
<feGaussianBlur stdDeviation="8" fill="#000000"/>
<feComposite in2="hardAlpha" operator="out" fill="#000000"/>
<feColorMatrix type="matrix" values="0 0 0 0 0.2125 0 0 0 0 0.123229 0 0 0 0 0.0398438 0 0 0 0.04 0" fill="#000000"/>
<feBlend mode="normal" in2="BackgroundImageFix" result="effect1_dropShadow_119_2757" fill="#000000"/>
<feBlend mode="normal" in="SourceGraphic" in2="effect1_dropShadow_119_2757" result="shape" fill="#000000"/>
</filter>
<filter id="filter1_d_119_2757" x="-711" y="-7.75134" width="2046.27" height="314.409" filterUnits="userSpaceOnUse" color-interpolation-filters="sRGB" fill="#000000">
<feFlood flood-opacity="0" result="BackgroundImageFix" fill="#000000"/>
<feColorMatrix in="SourceAlpha" type="matrix" values="0 0 0 0 0 0 0 0 0 0 0 0 0 0 0 0 0 0 127 0" result="hardAlpha" fill="#000000"/>
<feOffset dy="-4" fill="#000000"/>
<feGaussianBlur stdDeviation="8" fill="#000000"/>
<feComposite in2="hardAlpha" operator="out" fill="#000000"/>
<feColorMatrix type="matrix" values="0 0 0 0 0.2125 0 0 0 0 0.123229 0 0 0 0 0.0398438 0 0 0 0.04 0" fill="#000000"/>
<feBlend mode="normal" in2="BackgroundImageFix" result="effect1_dropShadow_119_2757" fill="#000000"/>
<feBlend mode="normal" in="SourceGraphic" in2="effect1_dropShadow_119_2757" result="shape" fill="#000000"/>
</filter>
<filter id="filter2_d_119_2757" x="-576" y="32" width="2046.27" height="314.409" filterUnits="userSpaceOnUse" color-interpolation-filters="sRGB" fill="#000000">
<feFlood flood-opacity="0" result="BackgroundImageFix" fill="#000000"/>
<feColorMatrix in="SourceAlpha" type="matrix" values="0 0 0 0 0 0 0 0 0 0 0 0 0 0 0 0 0 0 127 0" result="hardAlpha" fill="#000000"/>
<feOffset dy="-4" fill="#000000"/>
<feGaussianBlur stdDeviation="8" fill="#000000"/>
<feComposite in2="hardAlpha" operator="out" fill="#000000"/>
<feColorMatrix type="matrix" values="0 0 0 0 0.2125 0 0 0 0 0.123229 0 0 0 0 0.0398438 0 0 0 0.04 0" fill="#000000"/>
<feBlend mode="normal" in2="BackgroundImageFix" result="effect1_dropShadow_119_2757" fill="#000000"/>
<feBlend mode="normal" in="SourceGraphic" in2="effect1_dropShadow_119_2757" result="shape" fill="#000000"/>
</filter>
<linearGradient id="paint0_linear_119_2757" x1="312.134" y1="12.2487" x2="312.134" y2="294.658" gradientUnits="userSpaceOnUse" fill="#000000">
<stop stop-color="#4b61de" fill="#000000"/>
<stop offset="0.0001" stop-color="#1d2021" fill="#000000"/>
<stop offset="1" stop-color="#d9d1ca" fill="#000000"/>
</linearGradient>
<linearGradient id="paint1_linear_119_2757" x1="447.134" y1="69" x2="447.134" y2="334.409" gradientUnits="userSpaceOnUse" fill="#000000">
<stop stop-color="#262626" fill="#000000"/>
<stop offset="0.809789" stop-color="#03a9f4" fill="#000000"/>
</linearGradient>
<clipPath id="clip0_119_2757" fill="#000000">
<rect width="1280" height="150" fill="white"/>
</clipPath>
</defs>
</svg>