<svg width="14" height="13" viewBox="0 0 14 13" fill="none" xmlns="http://www.w3.org/2000/svg">
<path fill-rule="evenodd" clip-rule="evenodd" d="M0.333008 12C0.333008 11.6318 0.631485 11.3333 0.999674 11.3333H12.9997C13.3679 11.3333 13.6663 11.6318 13.6663 12C13.6663 12.3682 13.3679 12.6667 12.9997 12.6667H0.999674C0.631485 12.6667 0.333008 12.3682 0.333008 12Z" fill="#EC7500"/>
<path fill-rule="evenodd" clip-rule="evenodd" d="M2.99967 1.33333C2.82286 1.33333 2.65329 1.40357 2.52827 1.5286C2.40325 1.65362 2.33301 1.82319 2.33301 2V12C2.33301 12.3682 2.03453 12.6667 1.66634 12.6667C1.29815 12.6667 0.999674 12.3682 0.999674 12V2C0.999674 1.46957 1.21039 0.960859 1.58546 0.585786C1.96053 0.210714 2.46924 0 2.99967 0H10.9997C11.5301 0 12.0388 0.210714 12.4139 0.585786C12.789 0.960859 12.9997 1.46957 12.9997 2V12C12.9997 12.3682 12.7012 12.6667 12.333 12.6667C11.9648 12.6667 11.6663 12.3682 11.6663 12V2C11.6663 1.82319 11.5961 1.65362 11.4711 1.5286C11.3461 1.40357 11.1765 1.33333 10.9997 1.33333H2.99967Z" fill="#EC7500"/>
<path fill-rule="evenodd" clip-rule="evenodd" d="M6.99967 5.33333C6.64605 5.33333 6.30691 5.47381 6.05686 5.72386C5.80682 5.97391 5.66634 6.31304 5.66634 6.66667V12C5.66634 12.3682 5.36786 12.6667 4.99967 12.6667C4.63148 12.6667 4.33301 12.3682 4.33301 12V6.66667C4.33301 5.95942 4.61396 5.28115 5.11406 4.78105C5.61415 4.28095 6.29243 4 6.99967 4C7.70692 4 8.38519 4.28095 8.88529 4.78105C9.38539 5.28115 9.66634 5.95942 9.66634 6.66667V12C9.66634 12.3682 9.36786 12.6667 8.99967 12.6667C8.63148 12.6667 8.33301 12.3682 8.33301 12V6.66667C8.33301 6.31304 8.19253 5.97391 7.94248 5.72386C7.69244 5.47381 7.3533 5.33333 6.99967 5.33333Z" fill="#EC7500"/>
</svg>
