<svg width="160" height="187" viewBox="0 0 160 187" fill="none" xmlns="http://www.w3.org/2000/svg">
<path d="M51.9308 32.5001C44.9308 39.0001 41.6784 43.0682 37.9308 48.5001C31.7215 57.5001 23.3433 68.1881 20.6429 78.3896C18.7526 85.5307 19.1903 96.0644 22.0638 102.719C33.0216 128.095 67.1999 131.349 89.6146 119.64C94.6137 117.028 102.322 112.609 104.56 107.13C108.076 98.5222 108.425 91.3067 103.728 83.6932C98.3853 75.0348 83.9289 66.7224 70.4696 73.9007C56.6991 82.9833 52.9307 98 62.4307 112.5C70.9306 127 131.431 144.5 157.931 131" stroke="#847464" stroke-width="3" stroke-linecap="round" stroke-dasharray="8 8"/>
<path fill-rule="evenodd" clip-rule="evenodd" d="M87.4928 10.8205C87.7941 11.3423 87.6153 12.0095 87.0935 12.3107L60.1492 27.8671C59.6274 28.1683 58.9602 27.9896 58.659 27.4678C58.3577 26.946 58.5365 26.2788 59.0583 25.9776L86.0026 10.4212C86.5244 10.12 87.1916 10.2988 87.4928 10.8205Z" fill="#847464"/>
<path fill-rule="evenodd" clip-rule="evenodd" d="M87.4928 10.8205C87.7043 11.1868 87.6851 11.6424 87.4433 11.9895L65.5688 43.3981C65.5515 43.423 65.5332 43.4471 65.5139 43.4703C65.2464 43.7935 64.8917 44.0331 64.492 44.1605C64.0924 44.288 63.6645 44.2981 63.2592 44.1895C62.854 44.0809 62.4885 43.8582 62.2061 43.548C61.9286 43.2431 61.7428 42.8662 61.6699 42.4607L58.6079 27.4973L47.1802 17.3638C46.8655 17.098 46.632 16.7486 46.5067 16.3558C46.3792 15.9561 46.3691 15.5283 46.4777 15.123C46.5863 14.7178 46.809 14.3523 47.1192 14.0699C47.4294 13.7875 47.8142 13.6001 48.2279 13.53C48.2577 13.5249 48.2877 13.5211 48.3178 13.5186L86.4558 10.279C86.8773 10.2432 87.2814 10.4542 87.4928 10.8205ZM48.5862 15.6854L48.5852 15.6877C48.5848 15.6894 48.5848 15.6912 48.5853 15.6928C48.5859 15.6945 48.5868 15.696 48.5882 15.6971C48.5977 15.705 48.6071 15.713 48.6163 15.7212L60.3275 26.1061C60.5041 26.2627 60.6252 26.4724 60.6725 26.7036L63.8105 42.0383C63.813 42.0504 63.8153 42.0626 63.8173 42.0747C63.8176 42.0765 63.8184 42.0781 63.8196 42.0793C63.8207 42.0806 63.8223 42.0816 63.8239 42.082L63.8264 42.0823L84.3247 12.6497L48.5862 15.6854Z" fill="#847464"/>
</svg>
