<svg width="12" height="14" viewBox="0 0 12 14" fill="none" xmlns="http://www.w3.org/2000/svg">
<path fill-rule="evenodd" clip-rule="evenodd" d="M10.9294 0.387128C11.1746 0.492121 11.3337 0.733214 11.3337 0.999996V13C11.3337 13.3682 11.0352 13.6667 10.667 13.6667H10.0003C9.63214 13.6667 9.33366 13.3682 9.33366 13V11C9.33366 10.6318 9.63214 10.3333 10.0003 10.3333V9.66666H7.33366C6.96709 9.66666 6.6693 9.37072 6.66701 9.00416C6.65928 7.76802 6.68714 6.43977 7.1577 5.01868C7.63149 3.58787 8.53621 2.11122 10.2068 0.517604C10.3999 0.333462 10.6841 0.282135 10.9294 0.387128ZM10.0003 8.33333V2.68415C9.18334 3.6733 8.7065 4.58299 8.42345 5.43781C8.09897 6.41772 8.01718 7.35805 8.00225 8.33333H10.0003ZM1.33366 0.999996C1.70185 0.999996 2.00033 1.29847 2.00033 1.66666V3.66666C2.00033 4.02028 2.1408 4.35942 2.39085 4.60947C2.47397 4.69259 2.56693 4.7636 2.66699 4.82137V1.66666C2.66699 1.29847 2.96547 0.999996 3.33366 0.999996C3.70185 0.999996 4.00033 1.29847 4.00033 1.66666V4.82137C4.10039 4.7636 4.19335 4.69259 4.27647 4.60947C4.52652 4.35942 4.66699 4.02029 4.66699 3.66666V1.66666C4.66699 1.29847 4.96547 0.999996 5.33366 0.999996C5.70185 0.999996 6.00033 1.29847 6.00033 1.66666V3.66666C6.00033 4.37391 5.71937 5.05218 5.21928 5.55228C4.87958 5.89198 4.45768 6.13056 4.00033 6.24866V13C4.00033 13.3682 3.70185 13.6667 3.33366 13.6667C2.96547 13.6667 2.66699 13.3682 2.66699 13V6.24866C2.20964 6.13056 1.78774 5.89198 1.44804 5.55228C0.947944 5.05218 0.666992 4.37391 0.666992 3.66666V1.66666C0.666992 1.29847 0.965469 0.999996 1.33366 0.999996Z" fill="#A31010"/>
</svg>
