<svg width="12" height="14" viewBox="0 0 12 14" fill="none" xmlns="http://www.w3.org/2000/svg">
<path fill-rule="evenodd" clip-rule="evenodd" d="M5.52894 0.528606C5.78929 0.268256 6.2114 0.268256 6.47175 0.528606L9.13842 3.19527C9.28995 3.3468 9.3594 3.56194 9.32507 3.77346C9.29074 3.98499 9.15683 4.16713 8.96515 4.26296L8.45912 4.51598L10.4718 6.52861C10.6351 6.69198 10.7023 6.92831 10.6492 7.15318C10.5961 7.37805 10.4304 7.5594 10.2112 7.63247L9.2345 7.95802L11.1384 9.86194C11.3291 10.0526 11.3861 10.3393 11.2829 10.5885C11.1797 10.8376 10.9367 11 10.667 11H1.33368C1.06404 11 0.820946 10.8376 0.717759 10.5885C0.614571 10.3393 0.671608 10.0526 0.862274 9.86194L2.76619 7.95802L1.78953 7.63247C1.57033 7.5594 1.4046 7.37805 1.35151 7.15318C1.29843 6.92831 1.36556 6.69198 1.52894 6.52861L3.54157 4.51598L3.03554 4.26296C2.84386 4.16713 2.70995 3.98499 2.67562 3.77346C2.64129 3.56194 2.71074 3.3468 2.86227 3.19527L5.52894 0.528606ZM4.45912 3.48404L4.96515 3.73706C5.15683 3.83289 5.29074 4.01503 5.32507 4.22655C5.3594 4.43808 5.28995 4.65322 5.13842 4.80475L3.2345 6.70867L4.21116 7.03422C4.43036 7.10729 4.59609 7.28864 4.64918 7.51351C4.70226 7.73838 4.63513 7.9747 4.47175 8.13808L2.94315 9.66668H9.05754L7.52894 8.13808C7.36556 7.9747 7.29843 7.73838 7.35151 7.51351C7.4046 7.28864 7.57033 7.10729 7.78953 7.03422L8.76619 6.70867L6.86227 4.80475C6.71074 4.65322 6.64129 4.43808 6.67562 4.22655C6.70995 4.01503 6.84386 3.83289 7.03554 3.73706L7.54157 3.48404L6.00035 1.94282L4.45912 3.48404Z" fill="#10A339"/>
<path fill-rule="evenodd" clip-rule="evenodd" d="M4.66701 9.66668C5.0352 9.66668 5.33368 9.96515 5.33368 10.3333V12.3333H6.66701V10.3333C6.66701 9.96515 6.96549 9.66668 7.33368 9.66668C7.70187 9.66668 8.00034 9.96515 8.00034 10.3333V12.3333C8.00034 12.687 7.85987 13.0261 7.60982 13.2762C7.35977 13.5262 7.02063 13.6667 6.66701 13.6667H5.33368C4.98006 13.6667 4.64092 13.5262 4.39087 13.2762C4.14082 13.0261 4.00034 12.687 4.00034 12.3333V10.3333C4.00034 9.96515 4.29882 9.66668 4.66701 9.66668Z" fill="#10A339"/>
</svg>
