<svg width="112" height="175" viewBox="0 0 112 175" fill="none" xmlns="http://www.w3.org/2000/svg">
<path d="M5.80397 0.950063C4.99163 1.11253 4.4648 1.90277 4.62727 2.71511C4.78974 3.52745 5.57998 4.05427 6.39232 3.8918L5.80397 0.950063ZM26.5899 2.42093L26.3192 3.8963L26.5899 2.42093ZM57.5981 12.2854L58.3521 10.9887L57.5981 12.2854ZM73.7969 31.6292L72.4027 32.1825L73.7969 31.6292ZM37.996 91.3595L37.547 89.9283L37.996 91.3595ZM18.5825 93.082L19.1633 91.6991L18.5825 93.082ZM2.59849 75.9209L1.13887 76.2666L2.59849 75.9209ZM19.1912 45.4796L18.8898 44.0102L18.8213 44.0242L18.7545 44.0446L19.1912 45.4796ZM69.0984 44.9209L69.2435 43.428L69.0984 44.9209ZM94.5605 62.0763L93.5096 63.1466L94.5605 62.0763ZM107.084 82.933L108.488 82.4063L107.084 82.933ZM109.598 112.921L108.12 112.664L109.598 112.921ZM101.598 131.421L102.793 132.328L101.598 131.421ZM91.6741 140.536L92.5617 141.745L91.6741 140.536ZM49.4486 160.587L49.9103 162.014L49.4486 160.587ZM29.5314 166.155C29.1609 166.896 29.4612 167.797 30.2022 168.167L42.277 174.204C43.0179 174.575 43.9189 174.275 44.2894 173.534C44.6599 172.793 44.3596 171.892 43.6186 171.521L32.8855 166.155L38.252 155.422C38.6225 154.681 38.3222 153.78 37.5812 153.409C36.8403 153.039 35.9392 153.339 35.5688 154.08L29.5314 166.155ZM11.3093 3.27215C12.1355 3.21194 12.7565 2.49333 12.6963 1.6671C12.6361 0.840862 11.9175 0.219874 11.0912 0.280083L11.3093 3.27215ZM21.5978 0.291891C20.7717 0.229805 20.0517 0.849158 19.9896 1.67526C19.9275 2.50135 20.5468 3.22137 21.3729 3.28345L21.5978 0.291891ZM30.3079 4.6609C31.1201 4.82415 31.9109 4.29809 32.0741 3.48591C32.2374 2.67372 31.7113 1.88298 30.8991 1.71972L30.3079 4.6609ZM38.9477 3.53953C38.1451 3.33424 37.3281 3.81844 37.1228 4.62103C36.9175 5.42361 37.4017 6.24066 38.2043 6.44595L38.9477 3.53953ZM45.9269 8.72953C46.7106 8.99788 47.5635 8.58007 47.8319 7.79631C48.1003 7.01256 47.6824 6.15965 46.8987 5.89129L45.9269 8.72953ZM54.6341 9.02547C53.8873 8.66692 52.9912 8.98168 52.6327 9.7285C52.2741 10.4753 52.5889 11.3714 53.3357 11.7299L54.6341 9.02547ZM59.3295 15.2672C59.9863 15.772 60.928 15.6487 61.4328 14.9919C61.9376 14.335 61.8144 13.3933 61.1575 12.8885L59.3295 15.2672ZM66.0484 17.372C65.4812 16.7682 64.5319 16.7385 63.9281 17.3057C63.3243 17.8729 63.2946 18.8222 63.8618 19.426L66.0484 17.372ZM67.8221 24.2091C68.3104 24.8784 69.2488 25.025 69.918 24.5367C70.5872 24.0484 70.7339 23.1101 70.2456 22.4409L67.8221 24.2091ZM73.7725 28.0308C73.3849 27.2987 72.4772 27.0193 71.745 27.4069C71.0129 27.7945 70.7335 28.7022 71.1211 29.4344L73.7725 28.0308ZM73.5975 35.7197C73.8208 36.5175 74.6486 36.9832 75.4463 36.7599C76.2441 36.5366 76.7098 35.7089 76.4865 34.9111L73.5975 35.7197ZM77.8078 42.8823C77.7624 42.0551 77.055 41.4214 76.2278 41.4668C75.4006 41.5122 74.7669 42.2196 74.8123 43.0468L77.8078 42.8823ZM74.4201 50.4737C74.2899 51.2919 74.8476 52.0607 75.6657 52.1909C76.4838 52.3211 77.2526 51.7634 77.3829 50.9453L74.4201 50.4737ZM75.3443 58.7308C75.6288 57.9527 75.2286 57.0914 74.4505 56.807C73.6725 56.5225 72.8111 56.9227 72.5267 57.7007L75.3443 58.7308ZM69.3497 64.5053C68.9387 65.2246 69.1885 66.1409 69.9078 66.5519C70.6271 66.9629 71.5434 66.7131 71.9544 65.9938L69.3497 64.5053ZM67.4788 72.6099C67.9916 71.9594 67.8799 71.0162 67.2293 70.5033C66.5787 69.9905 65.6356 70.1022 65.1227 70.7528L67.4788 72.6099ZM60.0457 76.3612C59.4502 76.9372 59.4343 77.8868 60.0102 78.4823C60.5862 79.0778 61.5358 79.0936 62.1313 78.5177L60.0457 76.3612ZM56.0678 83.6723C56.7318 83.1769 56.8685 82.2371 56.3731 81.5731C55.8778 80.9091 54.9379 80.7724 54.2739 81.2677L56.0678 83.6723ZM47.9261 85.4023C47.2043 85.8089 46.9488 86.7236 47.3554 87.4454C47.762 88.1672 48.6767 88.4227 49.3985 88.0161L47.9261 85.4023ZM42.208 91.4552C42.9781 91.15 43.355 90.2782 43.0498 89.5081C42.7446 88.7379 41.8728 88.361 41.1027 88.6662L42.208 91.4552ZM32.8629 91.2669C32.0594 91.4686 31.5716 92.2835 31.7733 93.087C31.975 93.8905 32.7899 94.3783 33.5934 94.1766L32.8629 91.2669ZM23.3728 95.5269C24.2008 95.5549 24.8947 94.9064 24.9227 94.0784C24.9507 93.2505 24.3022 92.5566 23.4742 92.5286L23.3728 95.5269ZM16.4681 90.4667C15.727 90.0965 14.8261 90.3972 14.4559 91.1383C14.0857 91.8794 14.3864 92.7803 15.1275 93.1505L16.4681 90.4667ZM9.6793 89.7842C10.3345 90.2912 11.2766 90.1711 11.7836 89.5159C12.2906 88.8607 12.1705 87.9186 11.5153 87.4116L9.6793 89.7842ZM7.52769 83.3626C7.03797 82.6944 6.09931 82.5497 5.43112 83.0394C4.76294 83.5291 4.61826 84.4678 5.10797 85.136L7.52769 83.3626ZM2.05869 79.3664C2.34109 80.1452 3.20137 80.5476 3.98018 80.2652C4.75899 79.9828 5.16141 79.1225 4.87901 78.3437L2.05869 79.3664ZM3.50907 71.1772C3.48682 70.3491 2.79746 69.6958 1.96933 69.718C1.1412 69.7403 0.487905 70.4297 0.510149 71.2578L3.50907 71.1772ZM1.90058 61.4033C1.65388 62.1941 2.09498 63.0352 2.88582 63.2819C3.67666 63.5286 4.51776 63.0875 4.76447 62.2967L1.90058 61.4033ZM8.83729 54.3588C9.34361 53.7031 9.22251 52.7611 8.56682 52.2548C7.91112 51.7484 6.96913 51.8695 6.46281 52.5252L8.83729 54.3588ZM14.0949 45.9894C13.3672 46.3852 13.0981 47.296 13.4939 48.0238C13.8897 48.7515 14.8006 49.0206 15.5283 48.6248L14.0949 45.9894ZM23.5331 46.217C24.3514 46.0876 24.9098 45.3193 24.7803 44.5011C24.6509 43.6828 23.8827 43.1244 23.0644 43.2538L23.5331 46.217ZM31.4723 42.2701C30.6465 42.3353 30.0298 43.0577 30.0951 43.8835C30.1603 44.7094 30.8826 45.326 31.7085 45.2608L31.4723 42.2701ZM39.9548 44.8777C40.7832 44.864 41.4435 44.1814 41.4298 43.3531C41.4161 42.5248 40.7335 41.8644 39.9052 41.8782L39.9548 44.8777ZM48.3264 41.9505C47.4984 41.9244 46.806 42.5744 46.7799 43.4025C46.7538 44.2305 47.4038 44.9229 48.2318 44.949L48.3264 41.9505ZM56.5181 45.3652C57.3447 45.4205 58.0596 44.7952 58.1149 43.9686C58.1701 43.1421 57.5449 42.4272 56.7183 42.3719L56.5181 45.3652ZM65.0769 43.0365C64.2519 42.9621 63.5227 43.5707 63.4483 44.3958C63.3739 45.2208 63.9825 45.95 64.8075 46.0244L65.0769 43.0365ZM72.4863 47.1327C73.2781 47.3763 74.1175 46.932 74.3611 46.1402C74.6048 45.3484 74.1604 44.509 73.3686 44.2654L72.4863 47.1327ZM80.7636 47.8639C80.0712 47.4091 79.1411 47.6017 78.6864 48.2941C78.2316 48.9866 78.4242 49.9166 79.1166 50.3714L80.7636 47.8639ZM85.1093 55.0521C85.7286 55.6023 86.6767 55.5464 87.2269 54.9271C87.7771 54.3078 87.7212 53.3597 87.1019 52.8094L85.1093 55.0521ZM92.8338 58.2572C92.2451 57.6744 91.2954 57.6792 90.7126 58.268C90.1298 58.8567 90.1346 59.8065 90.7233 60.3893L92.8338 58.2572ZM95.532 65.2933C96.0766 65.9175 97.0242 65.982 97.6484 65.4374C98.2726 64.8927 98.3371 63.9452 97.7925 63.3209L95.532 65.2933ZM101.609 68.3732C101.154 67.6805 100.224 67.4874 99.5318 67.9418C98.8391 68.3962 98.6459 69.3261 99.1003 70.0188L101.609 68.3732ZM102.082 75.1844C102.458 75.9225 103.362 76.2159 104.1 75.8397C104.838 75.4635 105.131 74.5603 104.755 73.8222L102.082 75.1844ZM107.352 79.5091C107.037 78.7428 106.161 78.3768 105.395 78.6916C104.628 79.0064 104.262 79.8828 104.577 80.6491L107.352 79.5091ZM106.832 86.958C107.06 87.7543 107.891 88.2144 108.687 87.9858C109.484 87.7571 109.944 86.9263 109.715 86.13L106.832 86.958ZM111.344 93.7645C111.225 92.9446 110.464 92.3761 109.644 92.4948C108.824 92.6134 108.256 93.3743 108.375 94.1941L111.344 93.7645ZM108.971 101.585C108.985 102.414 109.669 103.073 110.497 103.058C111.325 103.044 111.985 102.36 111.97 101.532L108.971 101.585ZM111.62 109.315C111.71 108.492 111.114 107.752 110.291 107.662C109.467 107.573 108.727 108.168 108.638 108.992L111.62 109.315ZM107.104 117.567C106.904 118.371 107.393 119.185 108.196 119.385C109 119.586 109.814 119.097 110.015 118.293L107.104 117.567ZM105.878 128.134C106.336 127.444 106.148 126.513 105.458 126.055C104.768 125.597 103.837 125.785 103.379 126.475L105.878 128.134ZM98.3338 133.007C97.7726 133.617 97.8118 134.565 98.4212 135.127C99.0307 135.688 99.9796 135.649 100.541 135.039L98.3338 133.007ZM95.2992 139.698C95.9561 139.193 96.0794 138.252 95.5746 137.595C95.0699 136.938 94.1282 136.815 93.4713 137.319L95.2992 139.698ZM87.6287 141.58C86.9478 142.052 86.7784 142.987 87.2503 143.668C87.7223 144.349 88.6568 144.518 89.3376 144.046L87.6287 141.58ZM82.6831 148.358C83.393 147.931 83.6221 147.01 83.195 146.3C82.7678 145.59 81.8461 145.361 81.1363 145.788L82.6831 148.358ZM74.3798 149.521C73.6399 149.894 73.3423 150.796 73.715 151.535C74.0877 152.275 74.9896 152.573 75.7294 152.2L74.3798 149.521ZM68.5037 155.503C69.2691 155.186 69.6328 154.309 69.316 153.543C68.9992 152.778 68.1219 152.414 67.3564 152.731L68.5037 155.503ZM60.11 155.48C59.3283 155.754 58.917 156.61 59.1913 157.392C59.4656 158.174 60.3217 158.585 61.1034 158.311L60.11 155.48ZM53.6406 160.808C54.4286 160.552 54.8602 159.706 54.6045 158.918C54.3489 158.13 53.5029 157.699 52.7149 157.954L53.6406 160.808ZM44.32 160.697C43.5344 160.96 43.1104 161.809 43.373 162.595C43.6357 163.381 44.4855 163.805 45.2712 163.542L44.32 160.697ZM35.9976 166.683C36.7821 166.417 37.2023 165.565 36.9362 164.78C36.6701 163.996 35.8184 163.576 35.0338 163.842L35.9976 166.683ZM6.39232 3.8918C7.73944 3.62238 9.42535 3.40943 11.3093 3.27215L11.0912 0.280083C9.12442 0.423407 7.30829 0.649195 5.80397 0.950063L6.39232 3.8918ZM21.3729 3.28345C23.1199 3.41475 24.7987 3.61731 26.3192 3.8963L26.8607 0.945565C25.2139 0.643405 23.4266 0.429339 21.5978 0.291891L21.3729 3.28345ZM26.3192 3.8963C27.6269 4.13624 28.9593 4.38982 30.3079 4.6609L30.8991 1.71972C29.5308 1.44468 28.1814 1.1879 26.8607 0.945565L26.3192 3.8963ZM38.2043 6.44595C40.8067 7.11162 43.4006 7.86451 45.9269 8.72953L46.8987 5.89129C44.2831 4.99572 41.6112 4.22083 38.9477 3.53953L38.2043 6.44595ZM53.3357 11.7299C54.5446 12.3103 55.7167 12.9267 56.8442 13.5822L58.3521 10.9887C57.1502 10.2899 55.9077 9.6369 54.6341 9.02547L53.3357 11.7299ZM56.8442 13.5822C57.6521 14.0519 58.4849 14.6181 59.3295 15.2672L61.1575 12.8885C60.2282 12.1743 59.2885 11.5331 58.3521 10.9887L56.8442 13.5822ZM63.8618 19.426C65.2677 20.9227 66.6101 22.5481 67.8221 24.2091L70.2456 22.4409C68.9629 20.683 67.5417 18.9618 66.0484 17.372L63.8618 19.426ZM71.1211 29.4344C71.6257 30.3876 72.0564 31.3098 72.4027 32.1825L75.1911 31.0759C74.7987 30.0869 74.3201 29.0652 73.7725 28.0308L71.1211 29.4344ZM72.4027 32.1825C72.8706 33.3617 73.2678 34.5415 73.5975 35.7197L76.4865 34.9111C76.1283 33.6312 75.6975 32.352 75.1911 31.0759L72.4027 32.1825ZM74.8123 43.0468C74.9497 45.5471 74.8092 48.0291 74.4201 50.4737L77.3829 50.9453C77.804 48.2993 77.9573 45.6039 77.8078 42.8823L74.8123 43.0468ZM72.5267 57.7007C71.6746 60.0316 70.6062 62.3066 69.3497 64.5053L71.9544 65.9938C73.2895 63.6575 74.4308 61.2296 75.3443 58.7308L72.5267 57.7007ZM65.1227 70.7528C63.5702 72.7223 61.8687 74.5981 60.0457 76.3612L62.1313 78.5177C64.0478 76.6642 65.8402 74.6887 67.4788 72.6099L65.1227 70.7528ZM54.2739 81.2677C52.2399 82.7852 50.1145 84.1695 47.9261 85.4023L49.3985 88.0161C51.6996 86.7199 53.9323 85.2655 56.0678 83.6723L54.2739 81.2677ZM41.1027 88.6662C39.9246 89.1331 38.7381 89.5546 37.547 89.9283L38.445 92.7907C39.7078 92.3945 40.9634 91.9484 42.208 91.4552L41.1027 88.6662ZM37.547 89.9283C36.1531 90.3656 34.5564 90.8417 32.8629 91.2669L33.5934 94.1766C35.365 93.7318 37.0224 93.237 38.445 92.7907L37.547 89.9283ZM23.4742 92.5286C21.8408 92.4734 20.3816 92.2108 19.1633 91.6991L18.0016 94.465C19.6553 95.1596 21.5003 95.4636 23.3728 95.5269L23.4742 92.5286ZM19.1633 91.6991C18.2206 91.3031 17.3225 90.8935 16.4681 90.4667L15.1275 93.1505C16.047 93.6098 17.0053 94.0466 18.0016 94.465L19.1633 91.6991ZM11.5153 87.4116C9.96113 86.2089 8.63551 84.8742 7.52769 83.3626L5.10797 85.136C6.39653 86.8942 7.92468 88.4264 9.6793 89.7842L11.5153 87.4116ZM4.87901 78.3437C4.56371 77.4742 4.28972 76.5531 4.05811 75.5752L1.13887 76.2666C1.39543 77.3499 1.70175 78.382 2.05869 79.3664L4.87901 78.3437ZM4.05811 75.5752C3.73992 74.2317 3.55127 72.7482 3.50907 71.1772L0.510149 71.2578C0.557331 73.0143 0.768768 74.704 1.13887 76.2666L4.05811 75.5752ZM4.76447 62.2967C5.64139 59.4856 6.98569 56.7566 8.83729 54.3588L6.46281 52.5252C4.36926 55.2364 2.87102 58.2924 1.90058 61.4033L4.76447 62.2967ZM15.5283 48.6248C16.7817 47.9431 18.1462 47.3656 19.628 46.9146L18.7545 44.0446C17.0798 44.5543 15.5275 45.2102 14.0949 45.9894L15.5283 48.6248ZM19.4926 46.949C20.8298 46.6747 22.177 46.4315 23.5331 46.217L23.0644 43.2538C21.6656 43.4751 20.2735 43.7264 18.8898 44.0102L19.4926 46.949ZM31.7085 45.2608C34.4389 45.0452 37.1912 44.9235 39.9548 44.8777L39.9052 41.8782C37.0868 41.9248 34.2718 42.0491 31.4723 42.2701L31.7085 45.2608ZM48.2318 44.949C50.9987 45.0362 53.7643 45.181 56.5181 45.3652L56.7183 42.3719C53.9358 42.1858 51.1345 42.039 48.3264 41.9505L48.2318 44.949ZM64.8075 46.0244C66.1962 46.1496 67.5785 46.2802 68.9532 46.4139L69.2435 43.428C67.8635 43.2938 66.474 43.1625 65.0769 43.0365L64.8075 46.0244ZM68.9532 46.4139C70.1486 46.5301 71.3253 46.7754 72.4863 47.1327L73.3686 44.2654C72.0312 43.8539 70.6562 43.5653 69.2435 43.428L68.9532 46.4139ZM79.1166 50.3714C81.1697 51.7198 83.1625 53.3224 85.1093 55.0521L87.1019 52.8094C85.0885 51.0206 82.9775 49.3179 80.7636 47.8639L79.1166 50.3714ZM90.7233 60.3893C91.6611 61.3176 92.595 62.2486 93.5096 63.1466L95.6114 61.0059C94.7022 60.1133 93.7823 59.1961 92.8338 58.2572L90.7233 60.3893ZM93.5096 63.1466C94.2139 63.8381 94.8873 64.5544 95.532 65.2933L97.7925 63.3209C97.0988 62.526 96.3727 61.7534 95.6114 61.0059L93.5096 63.1466ZM99.1003 70.0188C100.186 71.6731 101.173 73.4011 102.082 75.1844L104.755 73.8222C103.803 71.9543 102.761 70.1303 101.609 68.3732L99.1003 70.0188ZM104.577 80.6491C104.959 81.5784 105.325 82.516 105.679 83.4597L108.488 82.4063C108.125 81.4366 107.747 80.4699 107.352 79.5091L104.577 80.6491ZM105.679 83.4597C106.091 84.5579 106.478 85.7266 106.832 86.958L109.715 86.13C109.34 84.8252 108.929 83.5811 108.488 82.4063L105.679 83.4597ZM108.375 94.1941C108.715 96.5448 108.925 99.0205 108.971 101.585L111.97 101.532C111.922 98.8381 111.701 96.2366 111.344 93.7645L108.375 94.1941ZM108.638 108.992C108.506 110.206 108.335 111.431 108.12 112.664L111.076 113.178C111.302 111.881 111.482 110.592 111.62 109.315L108.638 108.992ZM108.12 112.664C107.794 114.538 107.457 116.153 107.104 117.567L110.015 118.293C110.388 116.796 110.74 115.108 111.076 113.178L108.12 112.664ZM103.379 126.475C102.51 127.783 101.551 129.003 100.404 130.514L102.793 132.328C103.897 130.875 104.941 129.546 105.878 128.134L103.379 126.475ZM100.404 130.514C99.6873 131.457 99.0177 132.264 98.3338 133.007L100.541 135.039C101.3 134.215 102.03 133.333 102.793 132.328L100.404 130.514ZM93.4713 137.319C92.6749 137.931 91.7906 138.589 90.7865 139.326L92.5617 141.745C93.573 141.002 94.4775 140.33 95.2992 139.698L93.4713 137.319ZM90.7865 139.326C89.7121 140.115 88.6604 140.865 87.6287 141.58L89.3376 144.046C90.3924 143.315 91.4662 142.549 92.5617 141.745L90.7865 139.326ZM81.1363 145.788C78.8141 147.185 76.5743 148.415 74.3798 149.521L75.7294 152.2C77.9909 151.061 80.2964 149.795 82.6831 148.358L81.1363 145.788ZM67.3564 152.731C64.9584 153.723 62.5612 154.62 60.11 155.48L61.1034 158.311C63.5923 157.437 66.0427 156.521 68.5037 155.503L67.3564 152.731ZM52.7149 157.954C51.4951 158.35 50.2573 158.749 48.9868 159.16L49.9103 162.014C51.1753 161.605 52.4201 161.204 53.6406 160.808L52.7149 157.954ZM48.9868 159.16C47.4223 159.666 45.8683 160.179 44.32 160.697L45.2712 163.542C46.8127 163.027 48.3572 162.517 49.9103 162.014L48.9868 159.16ZM35.0338 163.842C33.4951 164.364 31.952 164.885 30.3987 165.402L31.3474 168.248C32.9078 167.728 34.4564 167.205 35.9976 166.683L35.0338 163.842Z" fill="#847464"/>
</svg>
