<svg width="20" height="19" viewBox="0 0 20 19" fill="none" xmlns="http://www.w3.org/2000/svg">
<path fill-rule="evenodd" clip-rule="evenodd" d="M9.99438 0.835007C10.3116 0.835007 10.6013 1.01509 10.7417 1.29954L13.1193 6.11732L18.4356 6.88779C18.7497 6.93331 19.0106 7.15328 19.1086 7.45512C19.2067 7.75697 19.1247 8.08829 18.8973 8.30965L15.0449 12.0596L15.9532 17.3549C16.0069 17.6677 15.8782 17.9838 15.6214 18.1702C15.3646 18.3567 15.0241 18.381 14.7434 18.2331L9.99977 15.7334L5.24468 18.2334C4.96391 18.3811 4.62369 18.3565 4.36706 18.17C4.11043 17.9836 3.98191 17.6676 4.03554 17.3549L4.94391 12.0596L1.09145 8.30965C0.86404 8.08829 0.782103 7.75697 0.880124 7.45512C0.978146 7.15328 1.23911 6.93331 1.55319 6.88779L6.86941 6.11732L9.2471 1.29954C9.38748 1.01509 9.67718 0.835007 9.99438 0.835007ZM9.99438 3.55132L8.16999 7.24797C8.04856 7.49403 7.81379 7.66454 7.54224 7.70389L3.46555 8.29471L6.42064 11.1712C6.61733 11.3627 6.70712 11.6387 6.66072 11.9092L5.96371 15.9724L9.61241 14.0541C9.85544 13.9263 10.1458 13.9264 10.3887 14.0544L14.0247 15.9705L13.328 11.9092C13.2816 11.6387 13.3714 11.3627 13.5681 11.1712L16.5232 8.29471L12.4465 7.70389C12.175 7.66454 11.9402 7.49403 11.8188 7.24797L9.99438 3.55132Z" fill="#847464"/>
</svg>
