<svg width="24" height="24" viewBox="0 0 24 24" fill="none" xmlns="http://www.w3.org/2000/svg">
<path d="M15.5681 0.375328C14.9791 0.205572 13.6736 0.0527913 12.5433 0.0188402C11.1901 -0.0320866 10.1552 0.0188406 9.32738 0.188596C8.6428 0.324401 7.56023 0.663912 6.92342 0.952497C6.30253 1.22411 5.41099 1.69942 4.98115 1.98801C4.53538 2.29357 3.77121 2.95562 3.26176 3.48186C2.75231 4.0081 2.05182 4.89083 1.70157 5.45103C1.36725 6.01122 0.905546 6.9958 0.698582 7.65785C0.475699 8.30292 0.220985 9.57609 0.109543 10.4588C-0.0337399 11.6641 -0.0337454 12.445 0.0936168 13.5144C0.189139 14.3123 0.41203 15.4496 0.587153 16.0608C0.762276 16.6719 1.1762 17.6565 1.51052 18.2506C1.84485 18.8617 2.57718 19.8463 3.15031 20.4574C3.72344 21.0686 4.58314 21.8325 5.06075 22.121C5.53836 22.4266 6.39805 22.8849 6.97118 23.1226C7.54431 23.3772 8.48361 23.6828 9.07266 23.8016C9.90051 23.9884 11.5881 24.0223 16.396 23.9884L22.6208 23.9544C17.6537 18.4883 16.1253 16.9095 16.0457 16.9095C15.9502 16.9095 15.584 17.1472 15.202 17.4358C14.8358 17.7074 14.1671 18.0639 13.7373 18.1997C13.2915 18.3355 12.4955 18.4373 11.9383 18.4373C11.3174 18.4373 10.6169 18.3015 10.0279 18.0639C9.37514 17.8092 8.84977 17.4188 8.14928 16.6719C7.44879 15.925 7.08262 15.3648 6.84382 14.6518C6.65278 14.1255 6.44581 13.2428 6.39805 12.6996C6.35029 12.1734 6.36621 11.3076 6.46173 10.7983C6.54133 10.2891 6.76422 9.52516 6.95527 9.10077C7.13039 8.67638 7.57615 7.96341 7.95824 7.50507C8.40401 6.97883 9.00897 6.50351 9.67762 6.164C10.5532 5.70566 10.8876 5.62078 11.9065 5.63776C12.5592 5.63776 13.387 5.72263 13.7373 5.82449C14.0875 5.94332 14.7243 6.28283 15.1701 6.58839C15.6 6.89395 16.1731 7.45414 16.4437 7.82761C16.7144 8.20107 17.0965 8.96497 17.3034 9.52516C17.5741 10.2721 17.6696 10.9002 17.6855 11.9017C17.6855 12.6487 17.6059 13.5314 17.5263 13.8539L17.3512 14.4481C21.7293 19.1503 21.8726 19.2861 22.1114 18.9975C22.2387 18.8278 22.5094 18.4204 22.6845 18.0978C22.8596 17.7753 23.2099 16.9265 23.4487 16.2305C23.8308 15.1271 23.9104 14.6518 23.974 12.6656C24.0377 10.8662 23.99 10.0854 23.7671 9.0159C23.6079 8.26897 23.2099 7.08068 22.8755 6.38468C22.5412 5.68868 21.8885 4.65317 21.4268 4.10995C20.9651 3.56674 20.1532 2.78586 19.6278 2.37845C19.1024 1.98801 18.2109 1.42781 17.6378 1.1562C17.0646 0.884595 16.1413 0.528108 15.5681 0.375328Z" fill="white"/>
<path d="M12.4637 6.26585C12.3841 6.13005 12.1293 6.04517 11.9065 6.06215C11.6836 6.06215 11.2378 6.14702 10.9194 6.2319C10.5851 6.31678 10.0279 6.53746 9.67762 6.72419C9.32738 6.91093 8.70649 7.42019 8.30849 7.86156C7.87864 8.35385 7.46471 9.03287 7.27367 9.55912C7.11447 10.0514 6.97118 10.8323 6.97118 11.3076C6.97118 12.1055 7.00302 12.1564 7.36918 12.1564C7.71943 12.1564 7.78311 12.0715 7.86271 11.3416C7.91047 10.9002 8.11744 10.1533 8.3244 9.69492C8.53137 9.2196 8.92937 8.62546 9.23186 8.35385C9.51842 8.08224 10.0438 7.72575 10.394 7.53902C10.7443 7.35229 11.3652 7.14858 11.795 7.08068C12.2408 7.02975 12.5592 6.87697 12.591 6.74117C12.6229 6.62234 12.5592 6.40166 12.4637 6.26585Z" fill="white"/>
</svg>
