<svg width="14" height="14" viewBox="0 0 14 14" fill="none" xmlns="http://www.w3.org/2000/svg">
<path fill-rule="evenodd" clip-rule="evenodd" d="M0.333008 13C0.333008 12.6318 0.631485 12.3333 0.999674 12.3333H12.9997C13.3679 12.3333 13.6663 12.6318 13.6663 13C13.6663 13.3682 13.3679 13.6666 12.9997 13.6666H0.999674C0.631485 13.6666 0.333008 13.3682 0.333008 13Z" fill="#8900F5"/>
<path fill-rule="evenodd" clip-rule="evenodd" d="M1.73672 0.701837C1.84965 0.475981 2.08049 0.333313 2.33301 0.333313H11.6663C11.9189 0.333313 12.1497 0.475981 12.2626 0.701837L13.596 3.3685C13.6422 3.46107 13.6663 3.56315 13.6663 3.66665V4.33331C13.6663 5.04056 13.3854 5.71883 12.8853 6.21893C12.3852 6.71903 11.7069 6.99998 10.9997 6.99998C10.2924 6.99998 9.61415 6.71903 9.11406 6.21893C9.07455 6.17943 9.03642 6.13881 8.99967 6.09715C8.96294 6.13881 8.9248 6.17943 8.88529 6.21893C8.38519 6.71903 7.70692 6.99998 6.99967 6.99998C6.29243 6.99998 5.61415 6.71903 5.11406 6.21893C5.07455 6.17943 5.03641 6.13881 4.99967 6.09715C4.96293 6.13881 4.9248 6.17943 4.88529 6.21893C4.3852 6.71903 3.70692 6.99998 2.99967 6.99998C2.29243 6.99998 1.61415 6.71903 1.11406 6.21893C0.613959 5.71883 0.333008 5.04056 0.333008 4.33331V3.66665C0.333008 3.56315 0.357105 3.46107 0.40339 3.3685L1.73672 0.701837ZM5.66634 4.33331C5.66634 4.68693 5.80682 5.02607 6.05686 5.27612C6.30691 5.52617 6.64605 5.66665 6.99967 5.66665C7.3533 5.66665 7.69244 5.52617 7.94248 5.27612C8.19253 5.02607 8.33301 4.68693 8.33301 4.33331H5.66634ZM2.07836 2.99998L2.74503 1.66665H11.2543L11.921 2.99998H2.07836ZM9.66634 4.33331C9.66634 4.68693 9.80682 5.02607 10.0569 5.27612C10.3069 5.52617 10.6461 5.66665 10.9997 5.66665C11.3533 5.66665 11.6924 5.52617 11.9425 5.27612C12.1925 5.02607 12.333 4.68693 12.333 4.33331H9.66634ZM1.66634 4.33331H4.33301C4.33301 4.68693 4.19253 5.02607 3.94248 5.27612C3.69244 5.52617 3.3533 5.66665 2.99967 5.66665C2.64605 5.66665 2.30691 5.52617 2.05687 5.27612C1.80682 5.02607 1.66634 4.68693 1.66634 4.33331Z" fill="#8900F5"/>
<path fill-rule="evenodd" clip-rule="evenodd" d="M2.33301 5.56665C2.7012 5.56665 2.99967 5.86512 2.99967 6.23331V13C2.99967 13.3682 2.7012 13.6666 2.33301 13.6666C1.96482 13.6666 1.66634 13.3682 1.66634 13V6.23331C1.66634 5.86512 1.96482 5.56665 2.33301 5.56665Z" fill="#8900F5"/>
<path fill-rule="evenodd" clip-rule="evenodd" d="M11.6663 5.56665C12.0345 5.56665 12.333 5.86512 12.333 6.23331V13C12.333 13.3682 12.0345 13.6666 11.6663 13.6666C11.2982 13.6666 10.9997 13.3682 10.9997 13V6.23331C10.9997 5.86512 11.2982 5.56665 11.6663 5.56665Z" fill="#8900F5"/>
<path fill-rule="evenodd" clip-rule="evenodd" d="M6.33301 9.66665C6.1562 9.66665 5.98663 9.73688 5.8616 9.86191C5.73658 9.98693 5.66634 10.1565 5.66634 10.3333V13C5.66634 13.3682 5.36786 13.6666 4.99967 13.6666C4.63148 13.6666 4.33301 13.3682 4.33301 13V10.3333C4.33301 9.80288 4.54372 9.29417 4.91879 8.9191C5.29387 8.54403 5.80257 8.33331 6.33301 8.33331H7.66634C8.19677 8.33331 8.70548 8.54403 9.08055 8.9191C9.45563 9.29417 9.66634 9.80288 9.66634 10.3333V13C9.66634 13.3682 9.36786 13.6666 8.99967 13.6666C8.63148 13.6666 8.33301 13.3682 8.33301 13V10.3333C8.33301 10.1565 8.26277 9.98693 8.13774 9.86191C8.01272 9.73688 7.84315 9.66665 7.66634 9.66665H6.33301Z" fill="#8900F5"/>
</svg>
