<svg width="16" height="16" viewBox="0 0 16 16" fill="none" xmlns="http://www.w3.org/2000/svg">
<g clip-path="url(#clip0_196_554)">
<path d="M8.66699 1.33334C8.66699 0.965149 8.36852 0.666672 8.00033 0.666672C7.63214 0.666672 7.33366 0.965149 7.33366 1.33334V2.66667C7.33366 3.03486 7.63214 3.33334 8.00033 3.33334C8.36852 3.33334 8.66699 3.03486 8.66699 2.66667V1.33334Z" fill="#BAAEA2"/>
<path d="M3.7577 2.81461C3.49735 2.55426 3.07524 2.55426 2.81489 2.81461C2.55454 3.07496 2.55454 3.49707 2.81489 3.75742L3.75756 4.70009C4.01791 4.96044 4.44002 4.96044 4.70037 4.70009C4.96072 4.43974 4.96072 4.01763 4.70037 3.75728L3.7577 2.81461Z" fill="#BAAEA2"/>
<path fill-rule="evenodd" clip-rule="evenodd" d="M8.00408 4.63404C8.44667 4.6302 8.8856 4.71454 9.29526 4.88214C9.70491 5.04974 10.0771 5.29725 10.3901 5.61023C10.703 5.9232 10.9505 6.29538 11.1182 6.70503C11.2858 7.11468 11.3701 7.55362 11.3662 7.99621C11.3624 8.43881 11.2704 8.87621 11.0958 9.28289C10.9211 9.68957 10.6671 10.0574 10.3487 10.3649C9.72007 10.9721 8.87807 11.3081 8.00408 11.3005C7.13009 11.2929 6.29405 10.9423 5.67602 10.3243C5.05799 9.70625 4.70743 8.8702 4.69983 7.99621C4.69224 7.12223 5.02822 6.28022 5.63541 5.65154C5.9429 5.33318 6.31072 5.07924 6.7174 4.90454C7.12408 4.72984 7.56148 4.63789 8.00408 4.63404ZM8.79037 6.11618C8.54458 6.01562 8.28122 5.96502 8.01566 5.96733C7.7501 5.96963 7.48766 6.02481 7.24366 6.12962C6.99965 6.23444 6.77896 6.38681 6.59446 6.57783C6.23015 6.95503 6.02856 7.46024 6.03312 7.98463C6.03767 8.50902 6.24801 9.01065 6.61883 9.38146C6.98964 9.75228 7.49127 9.96262 8.01566 9.96717C8.54006 9.97173 9.04526 9.77014 9.42246 9.40583C9.61349 9.22133 9.76585 9.00064 9.87067 8.75664C9.97548 8.51263 10.0307 8.25019 10.033 7.98463C10.0353 7.71907 9.98467 7.45571 9.88411 7.20992C9.78355 6.96413 9.63504 6.74082 9.44725 6.55304C9.25947 6.36525 9.03617 6.21674 8.79037 6.11618Z" fill="#BAAEA2"/>
<path d="M4.70037 11.2999C4.96072 11.5603 4.96072 11.9824 4.70037 12.2427L3.7577 13.1854C3.49735 13.4457 3.07524 13.4457 2.81489 13.1854C2.55454 12.925 2.55454 12.5029 2.81489 12.2426L3.75756 11.2999C4.01791 11.0396 4.44002 11.0396 4.70037 11.2999Z" fill="#BAAEA2"/>
<path d="M13.1857 2.81461C13.4461 3.07496 13.4461 3.49707 13.1857 3.75742L12.2431 4.70009C11.9827 4.96044 11.5606 4.96044 11.3002 4.70009C11.0399 4.43974 11.0399 4.01763 11.3002 3.75728L12.2429 2.81461C12.5033 2.55426 12.9254 2.55426 13.1857 2.81461Z" fill="#BAAEA2"/>
<path d="M12.2431 11.2999C11.9827 11.0396 11.5606 11.0396 11.3002 11.2999C11.0399 11.5603 11.0399 11.9824 11.3002 12.2427L12.2429 13.1854C12.5033 13.4457 12.9254 13.4457 13.1857 13.1854C13.4461 12.925 13.4461 12.5029 13.1857 12.2426L12.2431 11.2999Z" fill="#BAAEA2"/>
<path d="M0.666992 8.00001C0.666992 7.63181 0.965469 7.33334 1.33366 7.33334H2.66699C3.03518 7.33334 3.33366 7.63181 3.33366 8.00001C3.33366 8.3682 3.03518 8.66667 2.66699 8.66667H1.33366C0.965469 8.66667 0.666992 8.3682 0.666992 8.00001Z" fill="#BAAEA2"/>
<path d="M12.667 8.00001C12.667 7.63181 12.9655 7.33334 13.3337 7.33334H14.667C15.0352 7.33334 15.3337 7.63181 15.3337 8.00001C15.3337 8.3682 15.0352 8.66667 14.667 8.66667H13.3337C12.9655 8.66667 12.667 8.3682 12.667 8.00001Z" fill="#BAAEA2"/>
<path d="M8.66699 13.3333C8.66699 12.9651 8.36852 12.6667 8.00033 12.6667C7.63214 12.6667 7.33366 12.9651 7.33366 13.3333V14.6667C7.33366 15.0349 7.63214 15.3333 8.00033 15.3333C8.36852 15.3333 8.66699 15.0349 8.66699 14.6667V13.3333Z" fill="#BAAEA2"/>
</g>
<defs>
<clipPath id="clip0_196_554">
<rect width="16" height="16" fill="white"/>
</clipPath>
</defs>
</svg>
