<svg width="16" height="16" viewBox="0 0 16 16" fill="none" xmlns="http://www.w3.org/2000/svg">
<path d="M8.6665 1.33334C8.6665 0.965149 8.36803 0.666672 7.99984 0.666672C7.63165 0.666672 7.33317 0.965149 7.33317 1.33334V2.66667C7.33317 3.03486 7.63165 3.33334 7.99984 3.33334C8.36803 3.33334 8.6665 3.03486 8.6665 2.66667V1.33334Z" fill="#F49740"/>
<path d="M3.75721 2.81461C3.49686 2.55426 3.07475 2.55426 2.8144 2.81461C2.55405 3.07496 2.55405 3.49707 2.8144 3.75742L3.75707 4.70009C4.01742 4.96044 4.43953 4.96044 4.69988 4.70009C4.96023 4.43974 4.96023 4.01763 4.69988 3.75728L3.75721 2.81461Z" fill="#F49740"/>
<path fill-rule="evenodd" clip-rule="evenodd" d="M8.00359 4.63404C8.44619 4.6302 8.88512 4.71454 9.29477 4.88214C9.70443 5.04974 10.0766 5.29725 10.3896 5.61023C10.7026 5.9232 10.9501 6.29538 11.1177 6.70503C11.2853 7.11468 11.3696 7.55362 11.3658 7.99621C11.3619 8.43881 11.27 8.87621 11.0953 9.28289C10.9206 9.68957 10.6666 10.0574 10.3483 10.3649C9.71958 10.9721 8.87758 11.3081 8.00359 11.3005C7.1296 11.2929 6.29356 10.9423 5.67553 10.3243C5.0575 9.70625 4.70694 8.8702 4.69934 7.99621C4.69175 7.12223 5.02773 6.28022 5.63492 5.65154C5.94241 5.33318 6.31023 5.07924 6.71691 4.90454C7.12359 4.72984 7.56099 4.63789 8.00359 4.63404ZM8.78988 6.11618C8.54409 6.01562 8.28073 5.96502 8.01517 5.96733C7.74961 5.96963 7.48717 6.02481 7.24317 6.12962C6.99916 6.23444 6.77847 6.38681 6.59398 6.57783C6.22966 6.95503 6.02807 7.46024 6.03263 7.98463C6.03718 8.50902 6.24752 9.01065 6.61834 9.38146C6.98915 9.75228 7.49078 9.96262 8.01517 9.96717C8.53957 9.97173 9.04477 9.77014 9.42198 9.40583C9.613 9.22133 9.76536 9.00064 9.87018 8.75664C9.975 8.51263 10.0302 8.25019 10.0325 7.98463C10.0348 7.71907 9.98418 7.45571 9.88362 7.20992C9.78306 6.96413 9.63455 6.74082 9.44677 6.55304C9.25898 6.36525 9.03568 6.21674 8.78988 6.11618Z" fill="#F49740"/>
<path d="M4.69988 11.2999C4.96023 11.5603 4.96023 11.9824 4.69988 12.2427L3.75721 13.1854C3.49686 13.4457 3.07475 13.4457 2.8144 13.1854C2.55405 12.925 2.55405 12.5029 2.8144 12.2426L3.75707 11.2999C4.01742 11.0396 4.43953 11.0396 4.69988 11.2999Z" fill="#F49740"/>
<path d="M13.1852 2.81461C13.4456 3.07496 13.4456 3.49707 13.1852 3.75742L12.2426 4.70009C11.9822 4.96044 11.5601 4.96044 11.2998 4.70009C11.0394 4.43974 11.0394 4.01763 11.2998 3.75728L12.2424 2.81461C12.5028 2.55426 12.9249 2.55426 13.1852 2.81461Z" fill="#F49740"/>
<path d="M12.2426 11.2999C11.9822 11.0396 11.5601 11.0396 11.2998 11.2999C11.0394 11.5603 11.0394 11.9824 11.2998 12.2427L12.2424 13.1854C12.5028 13.4457 12.9249 13.4457 13.1852 13.1854C13.4456 12.925 13.4456 12.5029 13.1852 12.2426L12.2426 11.2999Z" fill="#F49740"/>
<path d="M0.666504 8.00001C0.666504 7.63181 0.964981 7.33334 1.33317 7.33334H2.6665C3.03469 7.33334 3.33317 7.63181 3.33317 8.00001C3.33317 8.3682 3.03469 8.66667 2.6665 8.66667H1.33317C0.964981 8.66667 0.666504 8.3682 0.666504 8.00001Z" fill="#F49740"/>
<path d="M12.6665 8.00001C12.6665 7.63181 12.965 7.33334 13.3332 7.33334H14.6665C15.0347 7.33334 15.3332 7.63181 15.3332 8.00001C15.3332 8.3682 15.0347 8.66667 14.6665 8.66667H13.3332C12.965 8.66667 12.6665 8.3682 12.6665 8.00001Z" fill="#F49740"/>
<path d="M8.6665 13.3333C8.6665 12.9651 8.36803 12.6667 7.99984 12.6667C7.63165 12.6667 7.33317 12.9651 7.33317 13.3333V14.6667C7.33317 15.0349 7.63165 15.3333 7.99984 15.3333C8.36803 15.3333 8.6665 15.0349 8.6665 14.6667V13.3333Z" fill="#F49740"/>
</svg>
