<svg width="16" height="15" viewBox="0 0 16 15" fill="none" xmlns="http://www.w3.org/2000/svg">
<path fill-rule="evenodd" clip-rule="evenodd" d="M1.49012e-08 7.5C1.49012e-08 6.94772 0.447715 6.5 1 6.5H15C15.5523 6.5 16 6.94772 16 7.5C16 8.05228 15.5523 8.5 15 8.5H1C0.447715 8.5 1.49012e-08 8.05228 1.49012e-08 7.5Z" fill="#361F0A"/>
<path fill-rule="evenodd" clip-rule="evenodd" d="M0.292893 6.79289C0.683417 6.40237 1.31658 6.40237 1.70711 6.79289L7.70711 12.7929C8.09763 13.1834 8.09763 13.8166 7.70711 14.2071C7.31658 14.5976 6.68342 14.5976 6.29289 14.2071L0.292893 8.20711C-0.0976311 7.81658 -0.0976311 7.18342 0.292893 6.79289Z" fill="#361F0A"/>
<path fill-rule="evenodd" clip-rule="evenodd" d="M7.70711 0.792893C8.09763 1.18342 8.09763 1.81658 7.70711 2.20711L1.70711 8.20711C1.31658 8.59763 0.683417 8.59763 0.292893 8.20711C-0.0976311 7.81658 -0.0976311 7.18342 0.292893 6.79289L6.29289 0.792893C6.68342 0.402369 7.31658 0.402369 7.70711 0.792893Z" fill="#361F0A"/>
</svg>
